<?xml version="1.0" encoding="UTF-8" standalone="no"?>
<!DOCTYPE svg PUBLIC "-//W3C//DTD SVG 1.1//EN" "http://www.w3.org/Graphics/SVG/1.1/DTD/svg11.dtd">
<svg width="100%" height="100%" viewBox="0 0 2048 1536" version="1.1" xmlns="http://www.w3.org/2000/svg" xmlns:xlink="http://www.w3.org/1999/xlink" xml:space="preserve" xmlns:serif="http://www.serif.com/" style="fill-rule:evenodd;clip-rule:evenodd;stroke-linecap:round;stroke-linejoin:round;stroke-miterlimit:1.5;">
    <g>
        <g transform="matrix(0.4,0,0,0.4,10.8,18.8)">
            <circle cx="198" cy="528" r="25" style="fill:none;stroke:black;stroke-width:2.5px;"/>
        </g>
        <g transform="matrix(0.4,0,0,0.4,10.8,58.8)">
            <circle cx="198" cy="528" r="25" style="fill:none;stroke:black;stroke-width:2.5px;"/>
        </g>
        <g transform="matrix(0.4,0,0,0.4,10.8,98.8)">
            <circle cx="198" cy="528" r="25" style="fill:none;stroke:black;stroke-width:2.5px;"/>
        </g>
        <g transform="matrix(0.4,0,0,0.4,10.8,138.8)">
            <circle cx="198" cy="528" r="25" style="fill:none;stroke:black;stroke-width:2.5px;"/>
        </g>
        <g transform="matrix(0.4,0,0,0.4,10.8,178.8)">
            <circle cx="198" cy="528" r="25" style="fill:none;stroke:black;stroke-width:2.5px;"/>
        </g>
        <g transform="matrix(0.4,0,0,0.4,10.8,218.8)">
            <circle cx="198" cy="528" r="25" style="fill:none;stroke:black;stroke-width:2.5px;"/>
        </g>
        <g transform="matrix(1,0,0,1,20,-5.68434e-14)">
            <path d="M-20,200L100,200L100,460L-20,460" style="fill:none;stroke:black;stroke-width:1px;"/>
        </g>
        <g transform="matrix(1,0,0,1,-11.0813,33.2484)">
            <g transform="matrix(24,0,0,24,39.0931,151.701)">
                <path d="M0.547,-0.716L0.642,-0.716L0.642,-0.302C0.642,-0.23 0.633,-0.173 0.617,-0.131C0.601,-0.089 0.572,-0.054 0.529,-0.028C0.487,-0.001 0.431,0.012 0.362,0.012C0.295,0.012 0.24,0.001 0.197,-0.022C0.155,-0.046 0.124,-0.079 0.106,-0.123C0.088,-0.167 0.079,-0.226 0.079,-0.302L0.079,-0.716L0.173,-0.716L0.173,-0.303C0.173,-0.241 0.179,-0.195 0.191,-0.165C0.202,-0.136 0.222,-0.113 0.25,-0.097C0.278,-0.081 0.313,-0.073 0.354,-0.073C0.423,-0.073 0.473,-0.089 0.502,-0.121C0.532,-0.152 0.547,-0.213 0.547,-0.303L0.547,-0.716Z" style="fill-rule:nonzero;"/>
            </g>
            <g transform="matrix(24,0,0,24,56.4251,151.701)">
                <path d="M0.045,-0.23L0.134,-0.238C0.139,-0.202 0.148,-0.173 0.164,-0.15C0.179,-0.127 0.203,-0.108 0.236,-0.094C0.268,-0.08 0.305,-0.073 0.346,-0.073C0.382,-0.073 0.414,-0.078 0.441,-0.089C0.469,-0.1 0.49,-0.114 0.503,-0.133C0.517,-0.152 0.523,-0.172 0.523,-0.194C0.523,-0.217 0.517,-0.236 0.504,-0.253C0.491,-0.27 0.469,-0.284 0.439,-0.295C0.42,-0.303 0.378,-0.315 0.312,-0.33C0.246,-0.346 0.2,-0.361 0.174,-0.375C0.14,-0.393 0.114,-0.415 0.097,-0.442C0.081,-0.468 0.072,-0.498 0.072,-0.531C0.072,-0.567 0.083,-0.601 0.103,-0.632C0.124,-0.663 0.153,-0.687 0.193,-0.704C0.232,-0.72 0.276,-0.728 0.324,-0.728C0.377,-0.728 0.424,-0.719 0.465,-0.702C0.505,-0.685 0.536,-0.66 0.558,-0.627C0.58,-0.594 0.592,-0.556 0.593,-0.514L0.502,-0.507C0.498,-0.553 0.481,-0.587 0.453,-0.61C0.425,-0.633 0.383,-0.645 0.328,-0.645C0.271,-0.645 0.229,-0.634 0.203,-0.613C0.177,-0.592 0.164,-0.567 0.164,-0.537C0.164,-0.511 0.173,-0.49 0.191,-0.474C0.21,-0.457 0.257,-0.44 0.334,-0.423C0.411,-0.405 0.464,-0.39 0.493,-0.377C0.534,-0.358 0.565,-0.333 0.585,-0.304C0.605,-0.274 0.615,-0.241 0.615,-0.202C0.615,-0.164 0.604,-0.128 0.582,-0.094C0.56,-0.061 0.529,-0.035 0.488,-0.016C0.447,0.003 0.401,0.012 0.35,0.012C0.285,0.012 0.231,0.003 0.187,-0.016C0.143,-0.035 0.109,-0.063 0.084,-0.101C0.059,-0.139 0.046,-0.182 0.045,-0.23Z" style="fill-rule:nonzero;"/>
            </g>
            <g transform="matrix(24,0,0,24,72.4329,151.701)">
                <path d="M0.073,0L0.073,-0.716L0.342,-0.716C0.396,-0.716 0.44,-0.709 0.473,-0.694C0.506,-0.68 0.532,-0.657 0.551,-0.627C0.57,-0.597 0.579,-0.566 0.579,-0.533C0.579,-0.502 0.571,-0.473 0.554,-0.446C0.538,-0.419 0.513,-0.397 0.479,-0.381C0.522,-0.368 0.556,-0.347 0.579,-0.316C0.602,-0.285 0.614,-0.249 0.614,-0.208C0.614,-0.174 0.607,-0.143 0.593,-0.114C0.578,-0.085 0.561,-0.063 0.54,-0.047C0.519,-0.032 0.493,-0.02 0.462,-0.012C0.43,-0.004 0.392,0 0.346,0L0.073,0ZM0.168,-0.415L0.323,-0.415C0.365,-0.415 0.395,-0.418 0.413,-0.423C0.437,-0.431 0.455,-0.442 0.468,-0.459C0.48,-0.476 0.486,-0.496 0.486,-0.521C0.486,-0.545 0.48,-0.566 0.469,-0.584C0.457,-0.602 0.441,-0.615 0.42,-0.621C0.399,-0.628 0.362,-0.631 0.311,-0.631L0.168,-0.631L0.168,-0.415ZM0.168,-0.084L0.346,-0.084C0.377,-0.084 0.398,-0.086 0.411,-0.088C0.432,-0.092 0.451,-0.098 0.465,-0.107C0.48,-0.117 0.492,-0.13 0.501,-0.147C0.511,-0.165 0.516,-0.185 0.516,-0.208C0.516,-0.234 0.509,-0.257 0.495,-0.277C0.481,-0.297 0.462,-0.311 0.438,-0.319C0.414,-0.327 0.379,-0.331 0.333,-0.331L0.168,-0.331L0.168,-0.084Z" style="fill-rule:nonzero;"/>
            </g>
            <g transform="matrix(24,0,0,24,94.6751,151.701)">
                <path d="M0.259,0L0.259,-0.631L0.023,-0.631L0.023,-0.716L0.591,-0.716L0.591,-0.631L0.354,-0.631L0.354,0L0.259,0Z" style="fill-rule:nonzero;"/>
            </g>
            <g transform="matrix(24,0,0,24,108.011,151.701)">
                <path d="M0.062,0.2L0.052,0.117C0.071,0.122 0.088,0.125 0.103,0.125C0.122,0.125 0.138,0.122 0.149,0.115C0.161,0.109 0.171,0.1 0.178,0.088C0.184,0.079 0.193,0.057 0.205,0.022C0.207,0.018 0.209,0.01 0.213,0.001L0.016,-0.519L0.111,-0.519L0.219,-0.218C0.233,-0.18 0.245,-0.14 0.256,-0.098C0.266,-0.139 0.278,-0.178 0.292,-0.216L0.403,-0.519L0.491,-0.519L0.294,0.009C0.273,0.066 0.256,0.105 0.245,0.126C0.229,0.155 0.211,0.177 0.191,0.19C0.171,0.204 0.147,0.21 0.119,0.21C0.102,0.21 0.083,0.207 0.062,0.2Z" style="fill-rule:nonzero;"/>
            </g>
            <g transform="matrix(24,0,0,24,120.011,151.701)">
                <path d="M0.066,0.199L0.066,-0.519L0.146,-0.519L0.146,-0.451C0.165,-0.478 0.186,-0.497 0.21,-0.51C0.234,-0.524 0.263,-0.53 0.296,-0.53C0.341,-0.53 0.38,-0.519 0.414,-0.496C0.447,-0.473 0.473,-0.441 0.49,-0.4C0.507,-0.358 0.516,-0.313 0.516,-0.263C0.516,-0.21 0.507,-0.162 0.488,-0.12C0.469,-0.077 0.441,-0.045 0.405,-0.022C0.368,0 0.33,0.012 0.29,0.012C0.261,0.012 0.234,0.006 0.211,-0.007C0.188,-0.019 0.169,-0.035 0.154,-0.054L0.154,0.199L0.066,0.199ZM0.146,-0.256C0.146,-0.19 0.159,-0.14 0.186,-0.108C0.213,-0.076 0.246,-0.061 0.284,-0.061C0.323,-0.061 0.357,-0.077 0.385,-0.11C0.412,-0.143 0.426,-0.194 0.426,-0.264C0.426,-0.33 0.413,-0.379 0.385,-0.412C0.358,-0.445 0.326,-0.461 0.288,-0.461C0.251,-0.461 0.218,-0.444 0.189,-0.409C0.16,-0.374 0.146,-0.323 0.146,-0.256Z" style="fill-rule:nonzero;"/>
            </g>
            <g transform="matrix(24,0,0,24,133.359,151.701)">
                <path d="M0.421,-0.167L0.512,-0.156C0.497,-0.103 0.471,-0.062 0.432,-0.032C0.393,-0.003 0.344,0.012 0.284,0.012C0.208,0.012 0.148,-0.012 0.103,-0.058C0.059,-0.105 0.037,-0.171 0.037,-0.255C0.037,-0.342 0.059,-0.41 0.104,-0.458C0.149,-0.506 0.207,-0.53 0.279,-0.53C0.348,-0.53 0.405,-0.507 0.449,-0.459C0.493,-0.412 0.515,-0.346 0.515,-0.26C0.515,-0.255 0.514,-0.247 0.514,-0.237L0.127,-0.237C0.131,-0.18 0.147,-0.136 0.176,-0.106C0.205,-0.076 0.241,-0.061 0.284,-0.061C0.316,-0.061 0.344,-0.069 0.367,-0.086C0.389,-0.103 0.408,-0.13 0.421,-0.167ZM0.132,-0.309L0.422,-0.309C0.418,-0.353 0.407,-0.385 0.389,-0.407C0.361,-0.441 0.324,-0.458 0.28,-0.458C0.239,-0.458 0.205,-0.444 0.178,-0.417C0.15,-0.39 0.135,-0.354 0.132,-0.309Z" style="fill-rule:nonzero;"/>
            </g>
            <g transform="matrix(24,0,0,24,146.706,151.701)">
                <rect x="0.032" y="-0.303" width="0.27" height="0.088" style="fill-rule:nonzero;"/>
            </g>
            <g transform="matrix(24,0,0,24,154.699,151.701)">
                <path d="M0.588,-0.251L0.683,-0.227C0.663,-0.149 0.627,-0.09 0.575,-0.049C0.524,-0.008 0.461,0.012 0.386,0.012C0.309,0.012 0.246,-0.003 0.198,-0.035C0.15,-0.066 0.113,-0.112 0.088,-0.171C0.062,-0.231 0.05,-0.295 0.05,-0.363C0.05,-0.438 0.064,-0.503 0.093,-0.558C0.121,-0.614 0.162,-0.656 0.214,-0.685C0.267,-0.714 0.325,-0.728 0.388,-0.728C0.459,-0.728 0.52,-0.71 0.568,-0.673C0.617,-0.637 0.651,-0.586 0.67,-0.52L0.577,-0.498C0.561,-0.55 0.536,-0.588 0.505,-0.611C0.473,-0.635 0.434,-0.647 0.386,-0.647C0.331,-0.647 0.285,-0.634 0.248,-0.607C0.211,-0.581 0.185,-0.546 0.17,-0.501C0.155,-0.457 0.147,-0.411 0.147,-0.364C0.147,-0.303 0.156,-0.25 0.174,-0.204C0.192,-0.159 0.219,-0.125 0.257,-0.103C0.294,-0.08 0.335,-0.069 0.378,-0.069C0.431,-0.069 0.476,-0.084 0.513,-0.115C0.55,-0.145 0.575,-0.191 0.588,-0.251Z" style="fill-rule:nonzero;"/>
            </g>
        </g>
        <g transform="matrix(1,0,0,1,20,-5.68434e-14)">
            <path d="M80,230L150,230L150,480L130,480L170,480" style="fill:none;stroke:black;stroke-width:1px;"/>
        </g>
        <g transform="matrix(1,0,0,1,20,-5.68434e-14)">
            <path d="M140,480L130,500" style="fill:none;stroke:black;stroke-width:1px;"/>
        </g>
        <g transform="matrix(1,0,0,1,20,-5.68434e-14)">
            <path d="M150,480L140,500" style="fill:none;stroke:black;stroke-width:1px;"/>
        </g>
        <g transform="matrix(1,0,0,1,20,-5.68434e-14)">
            <path d="M160,480L150,500" style="fill:none;stroke:black;stroke-width:1px;"/>
        </g>
        <g transform="matrix(1,0,0,1,20,-5.68434e-14)">
            <path d="M80,430L150,430" style="fill:none;stroke:black;stroke-width:1px;"/>
        </g>
        <g transform="matrix(1,0,0,1,70,0)">
            <path d="M30,350L200,350L200,420" style="fill:none;stroke:black;stroke-width:1px;"/>
        </g>
        <g transform="matrix(1,0,0,1,70,0)">
            <rect x="190" y="420" width="20" height="40" style="fill:none;stroke:black;stroke-width:1px;"/>
        </g>
        <g transform="matrix(1,0,0,1,170,-5.68434e-14)">
            <rect x="190" y="420" width="20" height="40" style="fill:none;stroke:black;stroke-width:1px;"/>
        </g>
        <g transform="matrix(1,0,0,1,120,0)">
            <path d="M-20,310L250,310L250,420" style="fill:none;stroke:black;stroke-width:1px;"/>
        </g>
        <g transform="matrix(1,0,0,1,70,0)">
            <path d="M200,460L200,480" style="fill:none;stroke:black;stroke-width:1px;"/>
        </g>
        <g transform="matrix(1,0,0,1,120,-5.68434e-14)">
            <path d="M250,460L250,480" style="fill:none;stroke:black;stroke-width:1px;"/>
        </g>
        <g transform="matrix(1,0,0,1,70,0)">
            <path d="M180,480L220,480" style="fill:none;stroke:black;stroke-width:1px;"/>
        </g>
        <g transform="matrix(1,0,0,1,120,-5.68434e-14)">
            <path d="M230,480L270,480" style="fill:none;stroke:black;stroke-width:1px;"/>
        </g>
        <g transform="matrix(1,0,0,1,70,0)">
            <path d="M190,480L180,500" style="fill:none;stroke:black;stroke-width:1px;"/>
        </g>
        <g transform="matrix(1,0,0,1,70,0)">
            <path d="M190,500L200,480.5" style="fill:none;stroke:black;stroke-width:1px;"/>
        </g>
        <g transform="matrix(1,0,0,1,70,0)">
            <path d="M200,500L210,480" style="fill:none;stroke:black;stroke-width:1px;"/>
        </g>
        <g transform="matrix(1,0,0,1,120,-5.68434e-14)">
            <path d="M230,500L240,480" style="fill:none;stroke:black;stroke-width:1px;"/>
        </g>
        <g transform="matrix(1,0,0,1,120,-5.68434e-14)">
            <path d="M240,500L250,480" style="fill:none;stroke:black;stroke-width:1px;"/>
        </g>
        <g transform="matrix(1,0,0,1,120,-5.68434e-14)">
            <path d="M250,500L260,480" style="fill:none;stroke:black;stroke-width:1px;"/>
        </g>
        <g transform="matrix(1,0,0,1,102.344,14.7297)">
            <g transform="matrix(24,0,0,24,286.66,432.52)">
                <path d="M0.042,-0.188L0.134,-0.195C0.141,-0.15 0.156,-0.117 0.181,-0.094C0.206,-0.071 0.236,-0.06 0.271,-0.06C0.314,-0.06 0.35,-0.076 0.379,-0.108C0.408,-0.14 0.423,-0.182 0.423,-0.235C0.423,-0.285 0.409,-0.325 0.381,-0.354C0.352,-0.382 0.316,-0.397 0.27,-0.397C0.242,-0.397 0.216,-0.391 0.193,-0.378C0.171,-0.365 0.153,-0.348 0.14,-0.328L0.057,-0.338L0.126,-0.706L0.482,-0.706L0.482,-0.622L0.197,-0.622L0.158,-0.43C0.201,-0.46 0.246,-0.475 0.293,-0.475C0.356,-0.475 0.409,-0.453 0.452,-0.41C0.495,-0.366 0.516,-0.311 0.516,-0.243C0.516,-0.178 0.497,-0.122 0.459,-0.075C0.414,-0.017 0.351,0.012 0.271,0.012C0.206,0.012 0.153,-0.006 0.112,-0.042C0.071,-0.079 0.047,-0.127 0.042,-0.188Z" style="fill-rule:nonzero;"/>
            </g>
            <g transform="matrix(24,0,0,24,300.008,432.52)">
                <rect x="0.091" y="-0.1" width="0.1" height="0.1" style="fill-rule:nonzero;"/>
            </g>
            <g transform="matrix(24,0,0,24,306.676,432.52)">
                <path d="M0.373,0L0.285,0L0.285,-0.56C0.264,-0.54 0.236,-0.52 0.201,-0.5C0.167,-0.479 0.136,-0.464 0.109,-0.454L0.109,-0.539C0.158,-0.562 0.201,-0.59 0.238,-0.623C0.275,-0.656 0.301,-0.688 0.316,-0.719L0.373,-0.719L0.373,0Z" style="fill-rule:nonzero;"/>
            </g>
            <g transform="matrix(24,0,0,24,320.023,432.52)">
                <path d="M0.066,0L0.066,-0.716L0.154,-0.716L0.154,-0.308L0.362,-0.519L0.476,-0.519L0.278,-0.326L0.496,0L0.388,0L0.216,-0.265L0.154,-0.206L0.154,0L0.066,0Z" style="fill-rule:nonzero;"/>
            </g>
        </g>
        <g transform="matrix(1,0,0,1,2.34373,14.7297)">
            <g transform="matrix(24,0,0,24,286.66,432.52)">
                <path d="M0.042,-0.188L0.134,-0.195C0.141,-0.15 0.156,-0.117 0.181,-0.094C0.206,-0.071 0.236,-0.06 0.271,-0.06C0.314,-0.06 0.35,-0.076 0.379,-0.108C0.408,-0.14 0.423,-0.182 0.423,-0.235C0.423,-0.285 0.409,-0.325 0.381,-0.354C0.352,-0.382 0.316,-0.397 0.27,-0.397C0.242,-0.397 0.216,-0.391 0.193,-0.378C0.171,-0.365 0.153,-0.348 0.14,-0.328L0.057,-0.338L0.126,-0.706L0.482,-0.706L0.482,-0.622L0.197,-0.622L0.158,-0.43C0.201,-0.46 0.246,-0.475 0.293,-0.475C0.356,-0.475 0.409,-0.453 0.452,-0.41C0.495,-0.366 0.516,-0.311 0.516,-0.243C0.516,-0.178 0.497,-0.122 0.459,-0.075C0.414,-0.017 0.351,0.012 0.271,0.012C0.206,0.012 0.153,-0.006 0.112,-0.042C0.071,-0.079 0.047,-0.127 0.042,-0.188Z" style="fill-rule:nonzero;"/>
            </g>
            <g transform="matrix(24,0,0,24,300.008,432.52)">
                <rect x="0.091" y="-0.1" width="0.1" height="0.1" style="fill-rule:nonzero;"/>
            </g>
            <g transform="matrix(24,0,0,24,306.676,432.52)">
                <path d="M0.373,0L0.285,0L0.285,-0.56C0.264,-0.54 0.236,-0.52 0.201,-0.5C0.167,-0.479 0.136,-0.464 0.109,-0.454L0.109,-0.539C0.158,-0.562 0.201,-0.59 0.238,-0.623C0.275,-0.656 0.301,-0.688 0.316,-0.719L0.373,-0.719L0.373,0Z" style="fill-rule:nonzero;"/>
            </g>
            <g transform="matrix(24,0,0,24,320.023,432.52)">
                <path d="M0.066,0L0.066,-0.716L0.154,-0.716L0.154,-0.308L0.362,-0.519L0.476,-0.519L0.278,-0.326L0.496,0L0.388,0L0.216,-0.265L0.154,-0.206L0.154,0L0.066,0Z" style="fill-rule:nonzero;"/>
            </g>
        </g>
        <g transform="matrix(1,0,0,1,20,-5.68434e-14)">
            <path d="M80,390L200,390L200,230" style="fill:none;stroke:black;stroke-width:1px;"/>
        </g>
        <g transform="matrix(1,0,0,1,20,-5.68434e-14)">
            <path d="M80,270L200,270" style="fill:none;stroke:black;stroke-width:1px;"/>
        </g>
        <g transform="matrix(1,0,0,1,20,-5.68434e-14)">
            <path d="M200,230L1350,230" style="fill:none;stroke:black;stroke-width:1px;"/>
        </g>
        <g transform="matrix(1,0,0,1,20,-5.68434e-14)">
            <rect x="260" y="220" width="40" height="20" style="fill:none;stroke:black;stroke-width:1px;"/>
        </g>
        <g transform="matrix(1,0,0,1,12.2803,12.0163)">
            <g transform="matrix(24,0,0,24,251.642,197.984)">
                <path d="M0.503,-0.084L0.503,0L0.03,0C0.03,-0.021 0.033,-0.042 0.041,-0.061C0.053,-0.093 0.072,-0.125 0.098,-0.156C0.125,-0.188 0.163,-0.224 0.213,-0.265C0.291,-0.328 0.344,-0.379 0.371,-0.416C0.398,-0.454 0.412,-0.489 0.412,-0.522C0.412,-0.557 0.4,-0.586 0.375,-0.61C0.35,-0.634 0.317,-0.646 0.277,-0.646C0.235,-0.646 0.201,-0.633 0.176,-0.608C0.15,-0.583 0.138,-0.547 0.137,-0.502L0.047,-0.512C0.053,-0.579 0.076,-0.63 0.117,-0.666C0.157,-0.701 0.211,-0.719 0.279,-0.719C0.348,-0.719 0.402,-0.7 0.442,-0.662C0.482,-0.624 0.502,-0.576 0.502,-0.52C0.502,-0.491 0.497,-0.463 0.485,-0.436C0.473,-0.408 0.454,-0.379 0.427,-0.348C0.399,-0.318 0.354,-0.276 0.291,-0.222C0.238,-0.178 0.204,-0.148 0.189,-0.132C0.174,-0.116 0.162,-0.1 0.152,-0.084L0.503,-0.084Z" style="fill-rule:nonzero;"/>
            </g>
            <g transform="matrix(24,0,0,24,264.989,197.984)">
                <path d="M0.042,-0.353C0.042,-0.438 0.05,-0.506 0.068,-0.557C0.085,-0.609 0.111,-0.649 0.145,-0.677C0.18,-0.705 0.223,-0.719 0.275,-0.719C0.313,-0.719 0.347,-0.711 0.376,-0.696C0.405,-0.68 0.429,-0.658 0.448,-0.629C0.467,-0.6 0.481,-0.564 0.492,-0.522C0.503,-0.48 0.508,-0.424 0.508,-0.353C0.508,-0.269 0.5,-0.201 0.482,-0.15C0.465,-0.098 0.439,-0.058 0.405,-0.03C0.371,-0.002 0.327,0.012 0.275,0.012C0.206,0.012 0.152,-0.013 0.112,-0.062C0.065,-0.122 0.042,-0.219 0.042,-0.353ZM0.132,-0.353C0.132,-0.236 0.146,-0.157 0.173,-0.118C0.201,-0.08 0.235,-0.06 0.275,-0.06C0.315,-0.06 0.349,-0.08 0.377,-0.119C0.404,-0.158 0.418,-0.236 0.418,-0.353C0.418,-0.471 0.404,-0.549 0.377,-0.588C0.349,-0.627 0.315,-0.646 0.274,-0.646C0.234,-0.646 0.201,-0.629 0.177,-0.595C0.147,-0.551 0.132,-0.471 0.132,-0.353Z" style="fill-rule:nonzero;"/>
            </g>
            <g transform="matrix(24,0,0,24,278.337,197.984)">
                <path d="M0.042,-0.353C0.042,-0.438 0.05,-0.506 0.068,-0.557C0.085,-0.609 0.111,-0.649 0.145,-0.677C0.18,-0.705 0.223,-0.719 0.275,-0.719C0.313,-0.719 0.347,-0.711 0.376,-0.696C0.405,-0.68 0.429,-0.658 0.448,-0.629C0.467,-0.6 0.481,-0.564 0.492,-0.522C0.503,-0.48 0.508,-0.424 0.508,-0.353C0.508,-0.269 0.5,-0.201 0.482,-0.15C0.465,-0.098 0.439,-0.058 0.405,-0.03C0.371,-0.002 0.327,0.012 0.275,0.012C0.206,0.012 0.152,-0.013 0.112,-0.062C0.065,-0.122 0.042,-0.219 0.042,-0.353ZM0.132,-0.353C0.132,-0.236 0.146,-0.157 0.173,-0.118C0.201,-0.08 0.235,-0.06 0.275,-0.06C0.315,-0.06 0.349,-0.08 0.377,-0.119C0.404,-0.158 0.418,-0.236 0.418,-0.353C0.418,-0.471 0.404,-0.549 0.377,-0.588C0.349,-0.627 0.315,-0.646 0.274,-0.646C0.234,-0.646 0.201,-0.629 0.177,-0.595C0.147,-0.551 0.132,-0.471 0.132,-0.353Z" style="fill-rule:nonzero;"/>
            </g>
            <g transform="matrix(24,0,0,24,291.685,197.984)">
                <path d="M0.066,0L0.066,-0.519L0.145,-0.519L0.145,-0.446C0.161,-0.471 0.182,-0.492 0.209,-0.507C0.236,-0.523 0.267,-0.53 0.302,-0.53C0.34,-0.53 0.372,-0.522 0.396,-0.506C0.421,-0.49 0.438,-0.468 0.448,-0.439C0.489,-0.5 0.543,-0.53 0.608,-0.53C0.66,-0.53 0.699,-0.516 0.727,-0.488C0.755,-0.459 0.769,-0.415 0.769,-0.356L0.769,0L0.681,0L0.681,-0.327C0.681,-0.362 0.678,-0.387 0.673,-0.403C0.667,-0.418 0.657,-0.431 0.642,-0.44C0.627,-0.449 0.609,-0.454 0.589,-0.454C0.552,-0.454 0.522,-0.442 0.498,-0.418C0.474,-0.393 0.462,-0.355 0.462,-0.301L0.462,0L0.374,0L0.374,-0.337C0.374,-0.376 0.367,-0.405 0.353,-0.425C0.338,-0.444 0.315,-0.454 0.282,-0.454C0.257,-0.454 0.235,-0.448 0.214,-0.435C0.193,-0.422 0.177,-0.403 0.168,-0.377C0.159,-0.352 0.154,-0.316 0.154,-0.269L0.154,0L0.066,0Z" style="fill-rule:nonzero;"/>
            </g>
            <g transform="matrix(24,0,0,24,311.677,197.984)">
                <path d="M-0.001,0L0.273,-0.716L0.375,-0.716L0.668,0L0.561,0L0.477,-0.217L0.178,-0.217L0.099,0L-0.001,0ZM0.205,-0.294L0.448,-0.294L0.373,-0.492C0.35,-0.552 0.333,-0.602 0.322,-0.641C0.313,-0.595 0.3,-0.549 0.284,-0.504L0.205,-0.294Z" style="fill-rule:nonzero;"/>
            </g>
        </g>
        <g transform="matrix(1,0,0,1,-17.5442,34.9344)">
            <g transform="matrix(24,0,0,24,36.5481,242.245)">
                <path d="M0.042,-0.188L0.134,-0.195C0.141,-0.15 0.156,-0.117 0.181,-0.094C0.206,-0.071 0.236,-0.06 0.271,-0.06C0.314,-0.06 0.35,-0.076 0.379,-0.108C0.408,-0.14 0.423,-0.182 0.423,-0.235C0.423,-0.285 0.409,-0.325 0.381,-0.354C0.352,-0.382 0.316,-0.397 0.27,-0.397C0.242,-0.397 0.216,-0.391 0.193,-0.378C0.171,-0.365 0.153,-0.348 0.14,-0.328L0.057,-0.338L0.126,-0.706L0.482,-0.706L0.482,-0.622L0.197,-0.622L0.158,-0.43C0.201,-0.46 0.246,-0.475 0.293,-0.475C0.356,-0.475 0.409,-0.453 0.452,-0.41C0.495,-0.366 0.516,-0.311 0.516,-0.243C0.516,-0.178 0.497,-0.122 0.459,-0.075C0.414,-0.017 0.351,0.012 0.271,0.012C0.206,0.012 0.153,-0.006 0.112,-0.042C0.071,-0.079 0.047,-0.127 0.042,-0.188Z" style="fill-rule:nonzero;"/>
            </g>
            <g transform="matrix(24,0,0,24,49.8958,242.245)">
                <path d="M0.282,0L0.004,-0.716L0.107,-0.716L0.293,-0.196C0.308,-0.154 0.32,-0.115 0.331,-0.079C0.342,-0.118 0.354,-0.157 0.369,-0.196L0.563,-0.716L0.659,-0.716L0.379,0L0.282,0Z" style="fill-rule:nonzero;"/>
            </g>
        </g>
        <g transform="matrix(1,0,0,1,-15.7161,154.934)">
            <g transform="matrix(24,0,0,24,36.5481,242.245)">
                <path d="M0.042,-0.188L0.134,-0.195C0.141,-0.15 0.156,-0.117 0.181,-0.094C0.206,-0.071 0.236,-0.06 0.271,-0.06C0.314,-0.06 0.35,-0.076 0.379,-0.108C0.408,-0.14 0.423,-0.182 0.423,-0.235C0.423,-0.285 0.409,-0.325 0.381,-0.354C0.352,-0.382 0.316,-0.397 0.27,-0.397C0.242,-0.397 0.216,-0.391 0.193,-0.378C0.171,-0.365 0.153,-0.348 0.14,-0.328L0.057,-0.338L0.126,-0.706L0.482,-0.706L0.482,-0.622L0.197,-0.622L0.158,-0.43C0.201,-0.46 0.246,-0.475 0.293,-0.475C0.356,-0.475 0.409,-0.453 0.452,-0.41C0.495,-0.366 0.516,-0.311 0.516,-0.243C0.516,-0.178 0.497,-0.122 0.459,-0.075C0.414,-0.017 0.351,0.012 0.271,0.012C0.206,0.012 0.153,-0.006 0.112,-0.042C0.071,-0.079 0.047,-0.127 0.042,-0.188Z" style="fill-rule:nonzero;"/>
            </g>
            <g transform="matrix(24,0,0,24,49.8958,242.245)">
                <path d="M0.282,0L0.004,-0.716L0.107,-0.716L0.293,-0.196C0.308,-0.154 0.32,-0.115 0.331,-0.079C0.342,-0.118 0.354,-0.157 0.369,-0.196L0.563,-0.716L0.659,-0.716L0.379,0L0.282,0Z" style="fill-rule:nonzero;"/>
            </g>
        </g>
        <g transform="matrix(1,0,0,1,5.0048,18.7802)">
            <g transform="matrix(24,0,0,24,12.9405,218.692)">
                <path d="M0.412,-0.281L0.412,-0.365L0.715,-0.365L0.715,-0.1C0.669,-0.063 0.621,-0.035 0.571,-0.016C0.522,0.003 0.471,0.012 0.419,0.012C0.349,0.012 0.285,-0.003 0.227,-0.033C0.17,-0.063 0.126,-0.107 0.097,-0.164C0.068,-0.221 0.053,-0.284 0.053,-0.354C0.053,-0.424 0.068,-0.489 0.097,-0.55C0.126,-0.61 0.168,-0.655 0.223,-0.684C0.277,-0.713 0.34,-0.728 0.412,-0.728C0.463,-0.728 0.51,-0.72 0.552,-0.703C0.594,-0.686 0.627,-0.663 0.65,-0.633C0.674,-0.603 0.692,-0.564 0.705,-0.516L0.619,-0.492C0.608,-0.529 0.595,-0.557 0.579,-0.578C0.563,-0.599 0.54,-0.616 0.511,-0.628C0.481,-0.641 0.448,-0.647 0.412,-0.647C0.369,-0.647 0.331,-0.64 0.3,-0.627C0.268,-0.614 0.243,-0.597 0.223,-0.575C0.204,-0.554 0.189,-0.53 0.178,-0.504C0.16,-0.46 0.151,-0.412 0.151,-0.36C0.151,-0.297 0.162,-0.243 0.184,-0.2C0.206,-0.157 0.238,-0.125 0.28,-0.104C0.322,-0.084 0.366,-0.073 0.414,-0.073C0.455,-0.073 0.495,-0.081 0.534,-0.097C0.573,-0.113 0.602,-0.13 0.623,-0.147L0.623,-0.281L0.412,-0.281Z" style="fill-rule:nonzero;"/>
            </g>
            <g transform="matrix(24,0,0,24,31.6085,218.692)">
                <path d="M0.076,0L0.076,-0.716L0.173,-0.716L0.549,-0.154L0.549,-0.716L0.64,-0.716L0.64,0L0.543,0L0.167,-0.563L0.167,0L0.076,0Z" style="fill-rule:nonzero;"/>
            </g>
            <g transform="matrix(24,0,0,24,48.9405,218.692)">
                <path d="M0.077,0L0.077,-0.716L0.324,-0.716C0.379,-0.716 0.422,-0.712 0.451,-0.706C0.492,-0.696 0.527,-0.679 0.556,-0.654C0.594,-0.622 0.622,-0.582 0.641,-0.532C0.66,-0.482 0.669,-0.426 0.669,-0.362C0.669,-0.307 0.663,-0.259 0.65,-0.217C0.637,-0.175 0.621,-0.141 0.601,-0.113C0.581,-0.086 0.559,-0.064 0.536,-0.048C0.512,-0.032 0.484,-0.02 0.45,-0.012C0.417,-0.004 0.379,0 0.335,0L0.077,0ZM0.172,-0.084L0.325,-0.084C0.372,-0.084 0.409,-0.089 0.436,-0.098C0.463,-0.106 0.484,-0.119 0.5,-0.135C0.522,-0.157 0.54,-0.187 0.552,-0.225C0.565,-0.263 0.571,-0.309 0.571,-0.363C0.571,-0.438 0.559,-0.496 0.534,-0.536C0.51,-0.576 0.48,-0.603 0.445,-0.617C0.419,-0.626 0.379,-0.631 0.322,-0.631L0.172,-0.631L0.172,-0.084Z" style="fill-rule:nonzero;"/>
            </g>
        </g>
        <g transform="matrix(1,0,0,1,5.78214,218.78)">
            <g transform="matrix(24,0,0,24,12.9405,218.692)">
                <path d="M0.412,-0.281L0.412,-0.365L0.715,-0.365L0.715,-0.1C0.669,-0.063 0.621,-0.035 0.571,-0.016C0.522,0.003 0.471,0.012 0.419,0.012C0.349,0.012 0.285,-0.003 0.227,-0.033C0.17,-0.063 0.126,-0.107 0.097,-0.164C0.068,-0.221 0.053,-0.284 0.053,-0.354C0.053,-0.424 0.068,-0.489 0.097,-0.55C0.126,-0.61 0.168,-0.655 0.223,-0.684C0.277,-0.713 0.34,-0.728 0.412,-0.728C0.463,-0.728 0.51,-0.72 0.552,-0.703C0.594,-0.686 0.627,-0.663 0.65,-0.633C0.674,-0.603 0.692,-0.564 0.705,-0.516L0.619,-0.492C0.608,-0.529 0.595,-0.557 0.579,-0.578C0.563,-0.599 0.54,-0.616 0.511,-0.628C0.481,-0.641 0.448,-0.647 0.412,-0.647C0.369,-0.647 0.331,-0.64 0.3,-0.627C0.268,-0.614 0.243,-0.597 0.223,-0.575C0.204,-0.554 0.189,-0.53 0.178,-0.504C0.16,-0.46 0.151,-0.412 0.151,-0.36C0.151,-0.297 0.162,-0.243 0.184,-0.2C0.206,-0.157 0.238,-0.125 0.28,-0.104C0.322,-0.084 0.366,-0.073 0.414,-0.073C0.455,-0.073 0.495,-0.081 0.534,-0.097C0.573,-0.113 0.602,-0.13 0.623,-0.147L0.623,-0.281L0.412,-0.281Z" style="fill-rule:nonzero;"/>
            </g>
            <g transform="matrix(24,0,0,24,31.6085,218.692)">
                <path d="M0.076,0L0.076,-0.716L0.173,-0.716L0.549,-0.154L0.549,-0.716L0.64,-0.716L0.64,0L0.543,0L0.167,-0.563L0.167,0L0.076,0Z" style="fill-rule:nonzero;"/>
            </g>
            <g transform="matrix(24,0,0,24,48.9405,218.692)">
                <path d="M0.077,0L0.077,-0.716L0.324,-0.716C0.379,-0.716 0.422,-0.712 0.451,-0.706C0.492,-0.696 0.527,-0.679 0.556,-0.654C0.594,-0.622 0.622,-0.582 0.641,-0.532C0.66,-0.482 0.669,-0.426 0.669,-0.362C0.669,-0.307 0.663,-0.259 0.65,-0.217C0.637,-0.175 0.621,-0.141 0.601,-0.113C0.581,-0.086 0.559,-0.064 0.536,-0.048C0.512,-0.032 0.484,-0.02 0.45,-0.012C0.417,-0.004 0.379,0 0.335,0L0.077,0ZM0.172,-0.084L0.325,-0.084C0.372,-0.084 0.409,-0.089 0.436,-0.098C0.463,-0.106 0.484,-0.119 0.5,-0.135C0.522,-0.157 0.54,-0.187 0.552,-0.225C0.565,-0.263 0.571,-0.309 0.571,-0.363C0.571,-0.438 0.559,-0.496 0.534,-0.536C0.51,-0.576 0.48,-0.603 0.445,-0.617C0.419,-0.626 0.379,-0.631 0.322,-0.631L0.172,-0.631L0.172,-0.084Z" style="fill-rule:nonzero;"/>
            </g>
        </g>
        <g transform="matrix(1,0,0,1,-2.00475,15.6615)">
            <g transform="matrix(24,0,0,24,20.8094,301.811)">
                <path d="M0.588,-0.251L0.683,-0.227C0.663,-0.149 0.627,-0.09 0.575,-0.049C0.524,-0.008 0.461,0.012 0.386,0.012C0.309,0.012 0.246,-0.003 0.198,-0.035C0.15,-0.066 0.113,-0.112 0.088,-0.171C0.062,-0.231 0.05,-0.295 0.05,-0.363C0.05,-0.438 0.064,-0.503 0.093,-0.558C0.121,-0.614 0.162,-0.656 0.214,-0.685C0.267,-0.714 0.325,-0.728 0.388,-0.728C0.459,-0.728 0.52,-0.71 0.568,-0.673C0.617,-0.637 0.651,-0.586 0.67,-0.52L0.577,-0.498C0.561,-0.55 0.536,-0.588 0.505,-0.611C0.473,-0.635 0.434,-0.647 0.386,-0.647C0.331,-0.647 0.285,-0.634 0.248,-0.607C0.211,-0.581 0.185,-0.546 0.17,-0.501C0.155,-0.457 0.147,-0.411 0.147,-0.364C0.147,-0.303 0.156,-0.25 0.174,-0.204C0.192,-0.159 0.219,-0.125 0.257,-0.103C0.294,-0.08 0.335,-0.069 0.378,-0.069C0.431,-0.069 0.476,-0.084 0.513,-0.115C0.55,-0.145 0.575,-0.191 0.588,-0.251Z" style="fill-rule:nonzero;"/>
            </g>
            <g transform="matrix(24,0,0,24,38.1415,301.811)">
                <path d="M0.588,-0.251L0.683,-0.227C0.663,-0.149 0.627,-0.09 0.575,-0.049C0.524,-0.008 0.461,0.012 0.386,0.012C0.309,0.012 0.246,-0.003 0.198,-0.035C0.15,-0.066 0.113,-0.112 0.088,-0.171C0.062,-0.231 0.05,-0.295 0.05,-0.363C0.05,-0.438 0.064,-0.503 0.093,-0.558C0.121,-0.614 0.162,-0.656 0.214,-0.685C0.267,-0.714 0.325,-0.728 0.388,-0.728C0.459,-0.728 0.52,-0.71 0.568,-0.673C0.617,-0.637 0.651,-0.586 0.67,-0.52L0.577,-0.498C0.561,-0.55 0.536,-0.588 0.505,-0.611C0.473,-0.635 0.434,-0.647 0.386,-0.647C0.331,-0.647 0.285,-0.634 0.248,-0.607C0.211,-0.581 0.185,-0.546 0.17,-0.501C0.155,-0.457 0.147,-0.411 0.147,-0.364C0.147,-0.303 0.156,-0.25 0.174,-0.204C0.192,-0.159 0.219,-0.125 0.257,-0.103C0.294,-0.08 0.335,-0.069 0.378,-0.069C0.431,-0.069 0.476,-0.084 0.513,-0.115C0.55,-0.145 0.575,-0.191 0.588,-0.251Z" style="fill-rule:nonzero;"/>
            </g>
            <g transform="matrix(24,0,0,24,55.4735,301.811)">
                <path d="M0.373,0L0.285,0L0.285,-0.56C0.264,-0.54 0.236,-0.52 0.201,-0.5C0.167,-0.479 0.136,-0.464 0.109,-0.454L0.109,-0.539C0.158,-0.562 0.201,-0.59 0.238,-0.623C0.275,-0.656 0.301,-0.688 0.316,-0.719L0.373,-0.719L0.373,0Z" style="fill-rule:nonzero;"/>
            </g>
        </g>
        <g transform="matrix(1,0,0,1,-2.00475,55.6615)">
            <g transform="matrix(24,0,0,24,20.8094,301.811)">
                <path d="M0.588,-0.251L0.683,-0.227C0.663,-0.149 0.627,-0.09 0.575,-0.049C0.524,-0.008 0.461,0.012 0.386,0.012C0.309,0.012 0.246,-0.003 0.198,-0.035C0.15,-0.066 0.113,-0.112 0.088,-0.171C0.062,-0.231 0.05,-0.295 0.05,-0.363C0.05,-0.438 0.064,-0.503 0.093,-0.558C0.121,-0.614 0.162,-0.656 0.214,-0.685C0.267,-0.714 0.325,-0.728 0.388,-0.728C0.459,-0.728 0.52,-0.71 0.568,-0.673C0.617,-0.637 0.651,-0.586 0.67,-0.52L0.577,-0.498C0.561,-0.55 0.536,-0.588 0.505,-0.611C0.473,-0.635 0.434,-0.647 0.386,-0.647C0.331,-0.647 0.285,-0.634 0.248,-0.607C0.211,-0.581 0.185,-0.546 0.17,-0.501C0.155,-0.457 0.147,-0.411 0.147,-0.364C0.147,-0.303 0.156,-0.25 0.174,-0.204C0.192,-0.159 0.219,-0.125 0.257,-0.103C0.294,-0.08 0.335,-0.069 0.378,-0.069C0.431,-0.069 0.476,-0.084 0.513,-0.115C0.55,-0.145 0.575,-0.191 0.588,-0.251Z" style="fill-rule:nonzero;"/>
            </g>
            <g transform="matrix(24,0,0,24,38.1415,301.811)">
                <path d="M0.588,-0.251L0.683,-0.227C0.663,-0.149 0.627,-0.09 0.575,-0.049C0.524,-0.008 0.461,0.012 0.386,0.012C0.309,0.012 0.246,-0.003 0.198,-0.035C0.15,-0.066 0.113,-0.112 0.088,-0.171C0.062,-0.231 0.05,-0.295 0.05,-0.363C0.05,-0.438 0.064,-0.503 0.093,-0.558C0.121,-0.614 0.162,-0.656 0.214,-0.685C0.267,-0.714 0.325,-0.728 0.388,-0.728C0.459,-0.728 0.52,-0.71 0.568,-0.673C0.617,-0.637 0.651,-0.586 0.67,-0.52L0.577,-0.498C0.561,-0.55 0.536,-0.588 0.505,-0.611C0.473,-0.635 0.434,-0.647 0.386,-0.647C0.331,-0.647 0.285,-0.634 0.248,-0.607C0.211,-0.581 0.185,-0.546 0.17,-0.501C0.155,-0.457 0.147,-0.411 0.147,-0.364C0.147,-0.303 0.156,-0.25 0.174,-0.204C0.192,-0.159 0.219,-0.125 0.257,-0.103C0.294,-0.08 0.335,-0.069 0.378,-0.069C0.431,-0.069 0.476,-0.084 0.513,-0.115C0.55,-0.145 0.575,-0.191 0.588,-0.251Z" style="fill-rule:nonzero;"/>
            </g>
            <g transform="matrix(24,0,0,24,55.4735,301.811)">
                <path d="M0.503,-0.084L0.503,0L0.03,0C0.03,-0.021 0.033,-0.042 0.041,-0.061C0.053,-0.093 0.072,-0.125 0.098,-0.156C0.125,-0.188 0.163,-0.224 0.213,-0.265C0.291,-0.328 0.344,-0.379 0.371,-0.416C0.398,-0.454 0.412,-0.489 0.412,-0.522C0.412,-0.557 0.4,-0.586 0.375,-0.61C0.35,-0.634 0.317,-0.646 0.277,-0.646C0.235,-0.646 0.201,-0.633 0.176,-0.608C0.15,-0.583 0.138,-0.547 0.137,-0.502L0.047,-0.512C0.053,-0.579 0.076,-0.63 0.117,-0.666C0.157,-0.701 0.211,-0.719 0.279,-0.719C0.348,-0.719 0.402,-0.7 0.442,-0.662C0.482,-0.624 0.502,-0.576 0.502,-0.52C0.502,-0.491 0.497,-0.463 0.485,-0.436C0.473,-0.408 0.454,-0.379 0.427,-0.348C0.399,-0.318 0.354,-0.276 0.291,-0.222C0.238,-0.178 0.204,-0.148 0.189,-0.132C0.174,-0.116 0.162,-0.1 0.152,-0.084L0.503,-0.084Z" style="fill-rule:nonzero;"/>
            </g>
        </g>
        <g transform="matrix(0.8,0,0,0.8,439,32)">
            <rect x="520" y="310" width="100" height="150" style="fill:none;stroke:black;stroke-width:1.25px;"/>
        </g>
        <g transform="matrix(1,0,0,1,340.383,-30)">
            <path d="M490,340L514.617,340" style="fill:none;stroke:black;stroke-width:1px;"/>
        </g>
        <g transform="matrix(1,0,0,1,340.383,-30)">
            <path d="M429.617,370L514.617,370" style="fill:none;stroke:black;stroke-width:1px;"/>
        </g>
        <g transform="matrix(1,0,0,1,340.383,-60)">
            <path d="M490,430L514.617,430" style="fill:none;stroke:black;stroke-width:1px;"/>
        </g>
        <g transform="matrix(1,0,0,1,450.383,-30)">
            <path d="M484.617,340L514.617,340" style="fill:none;stroke:black;stroke-width:1px;"/>
        </g>
        <g transform="matrix(1,0,0,1,450.383,-30)">
            <path d="M484.617,370L520,370" style="fill:none;stroke:black;stroke-width:1px;"/>
        </g>
        <g transform="matrix(0.847869,0,0,1,524.108,-60)">
            <path d="M484.617,430L520,430" style="fill:none;stroke:black;stroke-width:1.08px;"/>
        </g>
        <g transform="matrix(1,0,0,1,330,-35)">
            <circle cx="535" cy="325" r="5" style="fill:none;stroke:black;stroke-width:1px;"/>
        </g>
        <g transform="matrix(1,0,0,1,294.324,-167.369)">
            <g transform="matrix(24,0,0,24,511.461,474.619)">
                <path d="M0.077,0L0.077,-0.716L0.347,-0.716C0.395,-0.716 0.431,-0.714 0.456,-0.709C0.491,-0.703 0.521,-0.692 0.544,-0.676C0.568,-0.659 0.587,-0.636 0.602,-0.606C0.616,-0.577 0.624,-0.544 0.624,-0.509C0.624,-0.448 0.604,-0.396 0.565,-0.354C0.527,-0.312 0.457,-0.291 0.355,-0.291L0.172,-0.291L0.172,0L0.077,0ZM0.172,-0.375L0.357,-0.375C0.418,-0.375 0.462,-0.387 0.487,-0.41C0.513,-0.432 0.526,-0.465 0.526,-0.506C0.526,-0.536 0.518,-0.561 0.503,-0.583C0.488,-0.604 0.468,-0.618 0.443,-0.625C0.427,-0.629 0.398,-0.631 0.355,-0.631L0.172,-0.631L0.172,-0.375Z" style="fill-rule:nonzero;"/>
            </g>
            <g transform="matrix(24,0,0,24,527.469,474.619)">
                <path d="M0.073,0L0.073,-0.716L0.342,-0.716C0.396,-0.716 0.44,-0.709 0.473,-0.694C0.506,-0.68 0.532,-0.657 0.551,-0.627C0.57,-0.597 0.579,-0.566 0.579,-0.533C0.579,-0.502 0.571,-0.473 0.554,-0.446C0.538,-0.419 0.513,-0.397 0.479,-0.381C0.522,-0.368 0.556,-0.347 0.579,-0.316C0.602,-0.285 0.614,-0.249 0.614,-0.208C0.614,-0.174 0.607,-0.143 0.593,-0.114C0.578,-0.085 0.561,-0.063 0.54,-0.047C0.519,-0.032 0.493,-0.02 0.462,-0.012C0.43,-0.004 0.392,0 0.346,0L0.073,0ZM0.168,-0.415L0.323,-0.415C0.365,-0.415 0.395,-0.418 0.413,-0.423C0.437,-0.431 0.455,-0.442 0.468,-0.459C0.48,-0.476 0.486,-0.496 0.486,-0.521C0.486,-0.545 0.48,-0.566 0.469,-0.584C0.457,-0.602 0.441,-0.615 0.42,-0.621C0.399,-0.628 0.362,-0.631 0.311,-0.631L0.168,-0.631L0.168,-0.415ZM0.168,-0.084L0.346,-0.084C0.377,-0.084 0.398,-0.086 0.411,-0.088C0.432,-0.092 0.451,-0.098 0.465,-0.107C0.48,-0.117 0.492,-0.13 0.501,-0.147C0.511,-0.165 0.516,-0.185 0.516,-0.208C0.516,-0.234 0.509,-0.257 0.495,-0.277C0.481,-0.297 0.462,-0.311 0.438,-0.319C0.414,-0.327 0.379,-0.331 0.333,-0.331L0.168,-0.331L0.168,-0.084Z" style="fill-rule:nonzero;"/>
            </g>
            <g transform="matrix(24,0,0,24,543.477,474.619)">
                <path d="M0.042,-0.353C0.042,-0.438 0.05,-0.506 0.068,-0.557C0.085,-0.609 0.111,-0.649 0.145,-0.677C0.18,-0.705 0.223,-0.719 0.275,-0.719C0.313,-0.719 0.347,-0.711 0.376,-0.696C0.405,-0.68 0.429,-0.658 0.448,-0.629C0.467,-0.6 0.481,-0.564 0.492,-0.522C0.503,-0.48 0.508,-0.424 0.508,-0.353C0.508,-0.269 0.5,-0.201 0.482,-0.15C0.465,-0.098 0.439,-0.058 0.405,-0.03C0.371,-0.002 0.327,0.012 0.275,0.012C0.206,0.012 0.152,-0.013 0.112,-0.062C0.065,-0.122 0.042,-0.219 0.042,-0.353ZM0.132,-0.353C0.132,-0.236 0.146,-0.157 0.173,-0.118C0.201,-0.08 0.235,-0.06 0.275,-0.06C0.315,-0.06 0.349,-0.08 0.377,-0.119C0.404,-0.158 0.418,-0.236 0.418,-0.353C0.418,-0.471 0.404,-0.549 0.377,-0.588C0.349,-0.627 0.315,-0.646 0.274,-0.646C0.234,-0.646 0.201,-0.629 0.177,-0.595C0.147,-0.551 0.132,-0.471 0.132,-0.353Z" style="fill-rule:nonzero;"/>
            </g>
        </g>
        <g transform="matrix(1,0,0,1,277.394,-180.703)">
            <g transform="matrix(24,0,0,24,520.551,518.175)">
                <path d="M0.412,-0.281L0.412,-0.365L0.715,-0.365L0.715,-0.1C0.669,-0.063 0.621,-0.035 0.571,-0.016C0.522,0.003 0.471,0.012 0.419,0.012C0.349,0.012 0.285,-0.003 0.227,-0.033C0.17,-0.063 0.126,-0.107 0.097,-0.164C0.068,-0.221 0.053,-0.284 0.053,-0.354C0.053,-0.424 0.068,-0.489 0.097,-0.55C0.126,-0.61 0.168,-0.655 0.223,-0.684C0.277,-0.713 0.34,-0.728 0.412,-0.728C0.463,-0.728 0.51,-0.72 0.552,-0.703C0.594,-0.686 0.627,-0.663 0.65,-0.633C0.674,-0.603 0.692,-0.564 0.705,-0.516L0.619,-0.492C0.608,-0.529 0.595,-0.557 0.579,-0.578C0.563,-0.599 0.54,-0.616 0.511,-0.628C0.481,-0.641 0.448,-0.647 0.412,-0.647C0.369,-0.647 0.331,-0.64 0.3,-0.627C0.268,-0.614 0.243,-0.597 0.223,-0.575C0.204,-0.554 0.189,-0.53 0.178,-0.504C0.16,-0.46 0.151,-0.412 0.151,-0.36C0.151,-0.297 0.162,-0.243 0.184,-0.2C0.206,-0.157 0.238,-0.125 0.28,-0.104C0.322,-0.084 0.366,-0.073 0.414,-0.073C0.455,-0.073 0.495,-0.081 0.534,-0.097C0.573,-0.113 0.602,-0.13 0.623,-0.147L0.623,-0.281L0.412,-0.281Z" style="fill-rule:nonzero;"/>
            </g>
            <g transform="matrix(24,0,0,24,539.219,518.175)">
                <path d="M0.076,0L0.076,-0.716L0.173,-0.716L0.549,-0.154L0.549,-0.716L0.64,-0.716L0.64,0L0.543,0L0.167,-0.563L0.167,0L0.076,0Z" style="fill-rule:nonzero;"/>
            </g>
            <g transform="matrix(24,0,0,24,556.551,518.175)">
                <path d="M0.077,0L0.077,-0.716L0.324,-0.716C0.379,-0.716 0.422,-0.712 0.451,-0.706C0.492,-0.696 0.527,-0.679 0.556,-0.654C0.594,-0.622 0.622,-0.582 0.641,-0.532C0.66,-0.482 0.669,-0.426 0.669,-0.362C0.669,-0.307 0.663,-0.259 0.65,-0.217C0.637,-0.175 0.621,-0.141 0.601,-0.113C0.581,-0.086 0.559,-0.064 0.536,-0.048C0.512,-0.032 0.484,-0.02 0.45,-0.012C0.417,-0.004 0.379,0 0.335,0L0.077,0ZM0.172,-0.084L0.325,-0.084C0.372,-0.084 0.409,-0.089 0.436,-0.098C0.463,-0.106 0.484,-0.119 0.5,-0.135C0.522,-0.157 0.54,-0.187 0.552,-0.225C0.565,-0.263 0.571,-0.309 0.571,-0.363C0.571,-0.438 0.559,-0.496 0.534,-0.536C0.51,-0.576 0.48,-0.603 0.445,-0.617C0.419,-0.626 0.379,-0.631 0.322,-0.631L0.172,-0.631L0.172,-0.084Z" style="fill-rule:nonzero;"/>
            </g>
        </g>
        <g transform="matrix(1,0,0,1,178.398,-145.608)">
            <g transform="matrix(24,0,0,24,630.645,512.858)">
                <path d="M0.077,0L0.077,-0.716L0.347,-0.716C0.395,-0.716 0.431,-0.714 0.456,-0.709C0.491,-0.703 0.521,-0.692 0.544,-0.676C0.568,-0.659 0.587,-0.636 0.602,-0.606C0.616,-0.577 0.624,-0.544 0.624,-0.509C0.624,-0.448 0.604,-0.396 0.565,-0.354C0.527,-0.312 0.457,-0.291 0.355,-0.291L0.172,-0.291L0.172,0L0.077,0ZM0.172,-0.375L0.357,-0.375C0.418,-0.375 0.462,-0.387 0.487,-0.41C0.513,-0.432 0.526,-0.465 0.526,-0.506C0.526,-0.536 0.518,-0.561 0.503,-0.583C0.488,-0.604 0.468,-0.618 0.443,-0.625C0.427,-0.629 0.398,-0.631 0.355,-0.631L0.172,-0.631L0.172,-0.375Z" style="fill-rule:nonzero;"/>
            </g>
            <g transform="matrix(24,0,0,24,646.653,512.858)">
                <path d="M0.073,0L0.073,-0.716L0.342,-0.716C0.396,-0.716 0.44,-0.709 0.473,-0.694C0.506,-0.68 0.532,-0.657 0.551,-0.627C0.57,-0.597 0.579,-0.566 0.579,-0.533C0.579,-0.502 0.571,-0.473 0.554,-0.446C0.538,-0.419 0.513,-0.397 0.479,-0.381C0.522,-0.368 0.556,-0.347 0.579,-0.316C0.602,-0.285 0.614,-0.249 0.614,-0.208C0.614,-0.174 0.607,-0.143 0.593,-0.114C0.578,-0.085 0.561,-0.063 0.54,-0.047C0.519,-0.032 0.493,-0.02 0.462,-0.012C0.43,-0.004 0.392,0 0.346,0L0.073,0ZM0.168,-0.415L0.323,-0.415C0.365,-0.415 0.395,-0.418 0.413,-0.423C0.437,-0.431 0.455,-0.442 0.468,-0.459C0.48,-0.476 0.486,-0.496 0.486,-0.521C0.486,-0.545 0.48,-0.566 0.469,-0.584C0.457,-0.602 0.441,-0.615 0.42,-0.621C0.399,-0.628 0.362,-0.631 0.311,-0.631L0.168,-0.631L0.168,-0.415ZM0.168,-0.084L0.346,-0.084C0.377,-0.084 0.398,-0.086 0.411,-0.088C0.432,-0.092 0.451,-0.098 0.465,-0.107C0.48,-0.117 0.492,-0.13 0.501,-0.147C0.511,-0.165 0.516,-0.185 0.516,-0.208C0.516,-0.234 0.509,-0.257 0.495,-0.277C0.481,-0.297 0.462,-0.311 0.438,-0.319C0.414,-0.327 0.379,-0.331 0.333,-0.331L0.168,-0.331L0.168,-0.084Z" style="fill-rule:nonzero;"/>
            </g>
            <g transform="matrix(24,0,0,24,662.661,512.858)">
                <path d="M0.373,0L0.285,0L0.285,-0.56C0.264,-0.54 0.236,-0.52 0.201,-0.5C0.167,-0.479 0.136,-0.464 0.109,-0.454L0.109,-0.539C0.158,-0.562 0.201,-0.59 0.238,-0.623C0.275,-0.656 0.301,-0.688 0.316,-0.719L0.373,-0.719L0.373,0Z" style="fill-rule:nonzero;"/>
            </g>
        </g>
        <g transform="matrix(1,0,0,1,178.644,-155.617)">
            <g transform="matrix(24,0,0,24,759.505,522.867)">
                <path d="M0.077,0L0.077,-0.716L0.347,-0.716C0.395,-0.716 0.431,-0.714 0.456,-0.709C0.491,-0.703 0.521,-0.692 0.544,-0.676C0.568,-0.659 0.587,-0.636 0.602,-0.606C0.616,-0.577 0.624,-0.544 0.624,-0.509C0.624,-0.448 0.604,-0.396 0.565,-0.354C0.527,-0.312 0.457,-0.291 0.355,-0.291L0.172,-0.291L0.172,0L0.077,0ZM0.172,-0.375L0.357,-0.375C0.418,-0.375 0.462,-0.387 0.487,-0.41C0.513,-0.432 0.526,-0.465 0.526,-0.506C0.526,-0.536 0.518,-0.561 0.503,-0.583C0.488,-0.604 0.468,-0.618 0.443,-0.625C0.427,-0.629 0.398,-0.631 0.355,-0.631L0.172,-0.631L0.172,-0.375Z" style="fill-rule:nonzero;"/>
            </g>
            <g transform="matrix(24,0,0,24,775.512,522.867)">
                <path d="M0.073,0L0.073,-0.716L0.342,-0.716C0.396,-0.716 0.44,-0.709 0.473,-0.694C0.506,-0.68 0.532,-0.657 0.551,-0.627C0.57,-0.597 0.579,-0.566 0.579,-0.533C0.579,-0.502 0.571,-0.473 0.554,-0.446C0.538,-0.419 0.513,-0.397 0.479,-0.381C0.522,-0.368 0.556,-0.347 0.579,-0.316C0.602,-0.285 0.614,-0.249 0.614,-0.208C0.614,-0.174 0.607,-0.143 0.593,-0.114C0.578,-0.085 0.561,-0.063 0.54,-0.047C0.519,-0.032 0.493,-0.02 0.462,-0.012C0.43,-0.004 0.392,0 0.346,0L0.073,0ZM0.168,-0.415L0.323,-0.415C0.365,-0.415 0.395,-0.418 0.413,-0.423C0.437,-0.431 0.455,-0.442 0.468,-0.459C0.48,-0.476 0.486,-0.496 0.486,-0.521C0.486,-0.545 0.48,-0.566 0.469,-0.584C0.457,-0.602 0.441,-0.615 0.42,-0.621C0.399,-0.628 0.362,-0.631 0.311,-0.631L0.168,-0.631L0.168,-0.415ZM0.168,-0.084L0.346,-0.084C0.377,-0.084 0.398,-0.086 0.411,-0.088C0.432,-0.092 0.451,-0.098 0.465,-0.107C0.48,-0.117 0.492,-0.13 0.501,-0.147C0.511,-0.165 0.516,-0.185 0.516,-0.208C0.516,-0.234 0.509,-0.257 0.495,-0.277C0.481,-0.297 0.462,-0.311 0.438,-0.319C0.414,-0.327 0.379,-0.331 0.333,-0.331L0.168,-0.331L0.168,-0.084Z" style="fill-rule:nonzero;"/>
            </g>
            <g transform="matrix(24,0,0,24,791.52,522.867)">
                <path d="M0.503,-0.084L0.503,0L0.03,0C0.03,-0.021 0.033,-0.042 0.041,-0.061C0.053,-0.093 0.072,-0.125 0.098,-0.156C0.125,-0.188 0.163,-0.224 0.213,-0.265C0.291,-0.328 0.344,-0.379 0.371,-0.416C0.398,-0.454 0.412,-0.489 0.412,-0.522C0.412,-0.557 0.4,-0.586 0.375,-0.61C0.35,-0.634 0.317,-0.646 0.277,-0.646C0.235,-0.646 0.201,-0.633 0.176,-0.608C0.15,-0.583 0.138,-0.547 0.137,-0.502L0.047,-0.512C0.053,-0.579 0.076,-0.63 0.117,-0.666C0.157,-0.701 0.211,-0.719 0.279,-0.719C0.348,-0.719 0.402,-0.7 0.442,-0.662C0.482,-0.624 0.502,-0.576 0.502,-0.52C0.502,-0.491 0.497,-0.463 0.485,-0.436C0.473,-0.408 0.454,-0.379 0.427,-0.348C0.399,-0.318 0.354,-0.276 0.291,-0.222C0.238,-0.178 0.204,-0.148 0.189,-0.132C0.174,-0.116 0.162,-0.1 0.152,-0.084L0.503,-0.084Z" style="fill-rule:nonzero;"/>
            </g>
        </g>
        <g transform="matrix(1,0,0,1,291.492,-241.148)">
            <g transform="matrix(24,0,0,24,648.785,578.621)">
                <path d="M0.282,0L0.004,-0.716L0.107,-0.716L0.293,-0.196C0.308,-0.154 0.32,-0.115 0.331,-0.079C0.342,-0.118 0.354,-0.157 0.369,-0.196L0.563,-0.716L0.659,-0.716L0.379,0L0.282,0Z" style="fill-rule:nonzero;"/>
            </g>
            <g transform="matrix(24,0,0,24,664.793,578.621)">
                <path d="M0.588,-0.251L0.683,-0.227C0.663,-0.149 0.627,-0.09 0.575,-0.049C0.524,-0.008 0.461,0.012 0.386,0.012C0.309,0.012 0.246,-0.003 0.198,-0.035C0.15,-0.066 0.113,-0.112 0.088,-0.171C0.062,-0.231 0.05,-0.295 0.05,-0.363C0.05,-0.438 0.064,-0.503 0.093,-0.558C0.121,-0.614 0.162,-0.656 0.214,-0.685C0.267,-0.714 0.325,-0.728 0.388,-0.728C0.459,-0.728 0.52,-0.71 0.568,-0.673C0.617,-0.637 0.651,-0.586 0.67,-0.52L0.577,-0.498C0.561,-0.55 0.536,-0.588 0.505,-0.611C0.473,-0.635 0.434,-0.647 0.386,-0.647C0.331,-0.647 0.285,-0.634 0.248,-0.607C0.211,-0.581 0.185,-0.546 0.17,-0.501C0.155,-0.457 0.147,-0.411 0.147,-0.364C0.147,-0.303 0.156,-0.25 0.174,-0.204C0.192,-0.159 0.219,-0.125 0.257,-0.103C0.294,-0.08 0.335,-0.069 0.378,-0.069C0.431,-0.069 0.476,-0.084 0.513,-0.115C0.55,-0.145 0.575,-0.191 0.588,-0.251Z" style="fill-rule:nonzero;"/>
            </g>
            <g transform="matrix(24,0,0,24,682.125,578.621)">
                <path d="M0.588,-0.251L0.683,-0.227C0.663,-0.149 0.627,-0.09 0.575,-0.049C0.524,-0.008 0.461,0.012 0.386,0.012C0.309,0.012 0.246,-0.003 0.198,-0.035C0.15,-0.066 0.113,-0.112 0.088,-0.171C0.062,-0.231 0.05,-0.295 0.05,-0.363C0.05,-0.438 0.064,-0.503 0.093,-0.558C0.121,-0.614 0.162,-0.656 0.214,-0.685C0.267,-0.714 0.325,-0.728 0.388,-0.728C0.459,-0.728 0.52,-0.71 0.568,-0.673C0.617,-0.637 0.651,-0.586 0.67,-0.52L0.577,-0.498C0.561,-0.55 0.536,-0.588 0.505,-0.611C0.473,-0.635 0.434,-0.647 0.386,-0.647C0.331,-0.647 0.285,-0.634 0.248,-0.607C0.211,-0.581 0.185,-0.546 0.17,-0.501C0.155,-0.457 0.147,-0.411 0.147,-0.364C0.147,-0.303 0.156,-0.25 0.174,-0.204C0.192,-0.159 0.219,-0.125 0.257,-0.103C0.294,-0.08 0.335,-0.069 0.378,-0.069C0.431,-0.069 0.476,-0.084 0.513,-0.115C0.55,-0.145 0.575,-0.191 0.588,-0.251Z" style="fill-rule:nonzero;"/>
            </g>
        </g>
        <g transform="matrix(1,0,0,1,303.438,-309.923)">
            <g transform="matrix(24,0,0,24,634.711,617.173)">
                <path d="M0.077,0L0.077,-0.716L0.347,-0.716C0.395,-0.716 0.431,-0.714 0.456,-0.709C0.491,-0.703 0.521,-0.692 0.544,-0.676C0.568,-0.659 0.587,-0.636 0.602,-0.606C0.616,-0.577 0.624,-0.544 0.624,-0.509C0.624,-0.448 0.604,-0.396 0.565,-0.354C0.527,-0.312 0.457,-0.291 0.355,-0.291L0.172,-0.291L0.172,0L0.077,0ZM0.172,-0.375L0.357,-0.375C0.418,-0.375 0.462,-0.387 0.487,-0.41C0.513,-0.432 0.526,-0.465 0.526,-0.506C0.526,-0.536 0.518,-0.561 0.503,-0.583C0.488,-0.604 0.468,-0.618 0.443,-0.625C0.427,-0.629 0.398,-0.631 0.355,-0.631L0.172,-0.631L0.172,-0.375Z" style="fill-rule:nonzero;"/>
            </g>
            <g transform="matrix(24,0,0,24,650.719,617.173)">
                <path d="M0.073,0L0.073,-0.716L0.342,-0.716C0.396,-0.716 0.44,-0.709 0.473,-0.694C0.506,-0.68 0.532,-0.657 0.551,-0.627C0.57,-0.597 0.579,-0.566 0.579,-0.533C0.579,-0.502 0.571,-0.473 0.554,-0.446C0.538,-0.419 0.513,-0.397 0.479,-0.381C0.522,-0.368 0.556,-0.347 0.579,-0.316C0.602,-0.285 0.614,-0.249 0.614,-0.208C0.614,-0.174 0.607,-0.143 0.593,-0.114C0.578,-0.085 0.561,-0.063 0.54,-0.047C0.519,-0.032 0.493,-0.02 0.462,-0.012C0.43,-0.004 0.392,0 0.346,0L0.073,0ZM0.168,-0.415L0.323,-0.415C0.365,-0.415 0.395,-0.418 0.413,-0.423C0.437,-0.431 0.455,-0.442 0.468,-0.459C0.48,-0.476 0.486,-0.496 0.486,-0.521C0.486,-0.545 0.48,-0.566 0.469,-0.584C0.457,-0.602 0.441,-0.615 0.42,-0.621C0.399,-0.628 0.362,-0.631 0.311,-0.631L0.168,-0.631L0.168,-0.415ZM0.168,-0.084L0.346,-0.084C0.377,-0.084 0.398,-0.086 0.411,-0.088C0.432,-0.092 0.451,-0.098 0.465,-0.107C0.48,-0.117 0.492,-0.13 0.501,-0.147C0.511,-0.165 0.516,-0.185 0.516,-0.208C0.516,-0.234 0.509,-0.257 0.495,-0.277C0.481,-0.297 0.462,-0.311 0.438,-0.319C0.414,-0.327 0.379,-0.331 0.333,-0.331L0.168,-0.331L0.168,-0.084Z" style="fill-rule:nonzero;"/>
            </g>
            <g transform="matrix(24,0,0,24,666.727,617.173)">
                <path d="M0.042,-0.189L0.13,-0.201C0.14,-0.151 0.157,-0.115 0.181,-0.093C0.206,-0.071 0.235,-0.06 0.27,-0.06C0.311,-0.06 0.346,-0.074 0.375,-0.103C0.403,-0.132 0.417,-0.167 0.417,-0.209C0.417,-0.25 0.404,-0.283 0.378,-0.309C0.352,-0.336 0.318,-0.349 0.277,-0.349C0.261,-0.349 0.24,-0.345 0.215,-0.339L0.225,-0.416C0.231,-0.415 0.236,-0.415 0.239,-0.415C0.277,-0.415 0.31,-0.425 0.34,-0.444C0.37,-0.464 0.385,-0.494 0.385,-0.535C0.385,-0.567 0.374,-0.594 0.353,-0.615C0.331,-0.636 0.303,-0.646 0.268,-0.646C0.234,-0.646 0.205,-0.636 0.183,-0.614C0.16,-0.593 0.145,-0.561 0.139,-0.518L0.051,-0.533C0.062,-0.592 0.086,-0.638 0.124,-0.67C0.162,-0.703 0.209,-0.719 0.266,-0.719C0.305,-0.719 0.341,-0.71 0.374,-0.694C0.407,-0.677 0.432,-0.654 0.449,-0.625C0.467,-0.596 0.476,-0.565 0.476,-0.533C0.476,-0.502 0.467,-0.474 0.451,-0.448C0.434,-0.423 0.41,-0.403 0.377,-0.388C0.419,-0.378 0.452,-0.358 0.476,-0.327C0.499,-0.296 0.511,-0.258 0.511,-0.211C0.511,-0.149 0.488,-0.096 0.442,-0.052C0.397,-0.009 0.339,0.013 0.27,0.013C0.207,0.013 0.155,-0.006 0.113,-0.043C0.072,-0.081 0.048,-0.129 0.042,-0.189Z" style="fill-rule:nonzero;"/>
            </g>
        </g>
        <path d="M1320,440L1620,440L1620,340L1535,340" style="fill:none;stroke:black;stroke-width:1px;"/>
        <g transform="matrix(1,0,0,1,356.8,-10.4043)">
            <g transform="matrix(24,0,0,24,498.618,277.654)">
                <path d="M-0.001,0L0.273,-0.716L0.375,-0.716L0.668,0L0.561,0L0.477,-0.217L0.178,-0.217L0.099,0L-0.001,0ZM0.205,-0.294L0.448,-0.294L0.373,-0.492C0.35,-0.552 0.333,-0.602 0.322,-0.641C0.313,-0.595 0.3,-0.549 0.284,-0.504L0.205,-0.294Z" style="fill-rule:nonzero;"/>
            </g>
            <g transform="matrix(24,0,0,24,512.844,277.654)">
                <path d="M0.259,0L0.259,-0.631L0.023,-0.631L0.023,-0.716L0.591,-0.716L0.591,-0.631L0.354,-0.631L0.354,0L0.259,0Z" style="fill-rule:nonzero;"/>
            </g>
            <g transform="matrix(24,0,0,24,527.504,277.654)">
                <path d="M0.258,-0.079L0.271,-0.001C0.246,0.004 0.224,0.007 0.204,0.007C0.172,0.007 0.147,0.002 0.13,-0.008C0.112,-0.018 0.1,-0.032 0.093,-0.048C0.086,-0.065 0.082,-0.099 0.082,-0.152L0.082,-0.45L0.018,-0.45L0.018,-0.519L0.082,-0.519L0.082,-0.647L0.169,-0.7L0.169,-0.519L0.258,-0.519L0.258,-0.45L0.169,-0.45L0.169,-0.147C0.169,-0.122 0.171,-0.106 0.174,-0.099C0.177,-0.091 0.182,-0.086 0.189,-0.082C0.196,-0.077 0.206,-0.075 0.219,-0.075C0.229,-0.075 0.242,-0.076 0.258,-0.079Z" style="fill-rule:nonzero;"/>
            </g>
            <g transform="matrix(24,0,0,24,534.172,277.654)">
                <path d="M0.066,-0.615L0.066,-0.716L0.154,-0.716L0.154,-0.615L0.066,-0.615ZM0.066,0L0.066,-0.519L0.154,-0.519L0.154,0L0.066,0Z" style="fill-rule:nonzero;"/>
            </g>
            <g transform="matrix(24,0,0,24,539.504,277.654)">
                <path d="M0.066,0L0.066,-0.519L0.145,-0.519L0.145,-0.445C0.183,-0.502 0.238,-0.53 0.31,-0.53C0.341,-0.53 0.37,-0.525 0.396,-0.513C0.422,-0.502 0.442,-0.487 0.455,-0.469C0.468,-0.451 0.477,-0.429 0.482,-0.404C0.486,-0.388 0.487,-0.36 0.487,-0.319L0.487,0L0.399,0L0.399,-0.315C0.399,-0.351 0.396,-0.378 0.389,-0.396C0.382,-0.413 0.37,-0.428 0.353,-0.438C0.335,-0.449 0.315,-0.454 0.292,-0.454C0.254,-0.454 0.222,-0.442 0.195,-0.418C0.167,-0.395 0.154,-0.35 0.154,-0.283L0.154,0L0.066,0Z" style="fill-rule:nonzero;"/>
            </g>
            <g transform="matrix(24,0,0,24,552.852,277.654)">
                <path d="M0.062,0.2L0.052,0.117C0.071,0.122 0.088,0.125 0.103,0.125C0.122,0.125 0.138,0.122 0.149,0.115C0.161,0.109 0.171,0.1 0.178,0.088C0.184,0.079 0.193,0.057 0.205,0.022C0.207,0.018 0.209,0.01 0.213,0.001L0.016,-0.519L0.111,-0.519L0.219,-0.218C0.233,-0.18 0.245,-0.14 0.256,-0.098C0.266,-0.139 0.278,-0.178 0.292,-0.216L0.403,-0.519L0.491,-0.519L0.294,0.009C0.273,0.066 0.256,0.105 0.245,0.126C0.229,0.155 0.211,0.177 0.191,0.19C0.171,0.204 0.147,0.21 0.119,0.21C0.102,0.21 0.083,0.207 0.062,0.2Z" style="fill-rule:nonzero;"/>
            </g>
            <g transform="matrix(24,0,0,24,564.852,277.654)">
                <path d="M0.373,0L0.285,0L0.285,-0.56C0.264,-0.54 0.236,-0.52 0.201,-0.5C0.167,-0.479 0.136,-0.464 0.109,-0.454L0.109,-0.539C0.158,-0.562 0.201,-0.59 0.238,-0.623C0.275,-0.656 0.301,-0.688 0.316,-0.719L0.373,-0.719L0.373,0Z" style="fill-rule:nonzero;"/>
            </g>
            <g transform="matrix(24,0,0,24,578.2,277.654)">
                <path d="M0.042,-0.353C0.042,-0.438 0.05,-0.506 0.068,-0.557C0.085,-0.609 0.111,-0.649 0.145,-0.677C0.18,-0.705 0.223,-0.719 0.275,-0.719C0.313,-0.719 0.347,-0.711 0.376,-0.696C0.405,-0.68 0.429,-0.658 0.448,-0.629C0.467,-0.6 0.481,-0.564 0.492,-0.522C0.503,-0.48 0.508,-0.424 0.508,-0.353C0.508,-0.269 0.5,-0.201 0.482,-0.15C0.465,-0.098 0.439,-0.058 0.405,-0.03C0.371,-0.002 0.327,0.012 0.275,0.012C0.206,0.012 0.152,-0.013 0.112,-0.062C0.065,-0.122 0.042,-0.219 0.042,-0.353ZM0.132,-0.353C0.132,-0.236 0.146,-0.157 0.173,-0.118C0.201,-0.08 0.235,-0.06 0.275,-0.06C0.315,-0.06 0.349,-0.08 0.377,-0.119C0.404,-0.158 0.418,-0.236 0.418,-0.353C0.418,-0.471 0.404,-0.549 0.377,-0.588C0.349,-0.627 0.315,-0.646 0.274,-0.646C0.234,-0.646 0.201,-0.629 0.177,-0.595C0.147,-0.551 0.132,-0.471 0.132,-0.353Z" style="fill-rule:nonzero;"/>
            </g>
        </g>
        <g transform="matrix(1,0,0,1,300,-20)">
            <path d="M470,360L470,500" style="fill:none;stroke:black;stroke-width:1px;"/>
        </g>
        <g transform="matrix(1,0,0,1,300,0)">
            <path d="M450,480L490,480" style="fill:none;stroke:black;stroke-width:1px;"/>
        </g>
        <g transform="matrix(1,0,0,1,300,0)">
            <path d="M450,500L460,480" style="fill:none;stroke:black;stroke-width:1px;"/>
        </g>
        <g transform="matrix(1,0,0,1,300,0)">
            <path d="M460,500L470,480" style="fill:none;stroke:black;stroke-width:1px;"/>
        </g>
        <g transform="matrix(1,0,0,1,300,0)">
            <path d="M470,500L480,480.5" style="fill:none;stroke:black;stroke-width:1px;"/>
        </g>
        <path d="M470,480L470,420L450,390" style="fill:none;stroke:black;stroke-width:1px;"/>
        <path d="M470,390L470,310" style="fill:none;stroke:black;stroke-width:1px;"/>
        <path d="M450,480L490,480" style="fill:none;stroke:black;stroke-width:1px;"/>
        <path d="M450,500L460,480" style="fill:none;stroke:black;stroke-width:1px;"/>
        <path d="M460,500L470,480" style="fill:none;stroke:black;stroke-width:1px;"/>
        <path d="M470,500L480,480" style="fill:none;stroke:black;stroke-width:1px;"/>
        <path d="M470,310L830,310" style="fill:none;stroke:black;stroke-width:1px;"/>
        <path d="M550,480L590,480" style="fill:none;stroke:black;stroke-width:1px;"/>
        <path d="M550,500L560,480" style="fill:none;stroke:black;stroke-width:1px;"/>
        <path d="M560,500L570,480" style="fill:none;stroke:black;stroke-width:1px;"/>
        <path d="M570,500L580,480" style="fill:none;stroke:black;stroke-width:1px;"/>
        <g transform="matrix(1,0,0,1,100,0)">
            <path d="M550,480L590,480" style="fill:none;stroke:black;stroke-width:1px;"/>
        </g>
        <g transform="matrix(1,0,0,1,100,0)">
            <path d="M550,500L560,480" style="fill:none;stroke:black;stroke-width:1px;"/>
        </g>
        <g transform="matrix(1,0,0,1,100,0)">
            <path d="M560,500L570,480" style="fill:none;stroke:black;stroke-width:1px;"/>
        </g>
        <g transform="matrix(1,0,0,1,100,0)">
            <path d="M570,500L580,480" style="fill:none;stroke:black;stroke-width:1px;"/>
        </g>
        <g transform="matrix(1,0,0,1,370,-70)">
            <rect x="190" y="420" width="20" height="40" style="fill:none;stroke:black;stroke-width:1px;"/>
        </g>
        <path d="M570,230L570,350" style="fill:none;stroke:black;stroke-width:1px;"/>
        <path d="M570,390L570,480" style="fill:none;stroke:black;stroke-width:1px;"/>
        <path d="M600,360L580,370L600,380" style="fill:none;stroke:black;stroke-width:1px;"/>
        <path d="M580,370L830,370" style="fill:none;stroke:black;stroke-width:1px;"/>
        <g transform="matrix(1,0,0,1,470,5.68434e-14)">
            <rect x="190" y="420" width="20" height="40" style="fill:none;stroke:black;stroke-width:1px;"/>
        </g>
        <path d="M670,480L670,460" style="fill:none;stroke:black;stroke-width:1px;"/>
        <path d="M670,420L670,370" style="fill:none;stroke:black;stroke-width:1px;"/>
        <g transform="matrix(1,0,0,1,-2.22956,24.0785)">
            <g transform="matrix(24,0,0,24,599.616,333.171)">
                <path d="M0.373,0L0.285,0L0.285,-0.56C0.264,-0.54 0.236,-0.52 0.201,-0.5C0.167,-0.479 0.136,-0.464 0.109,-0.454L0.109,-0.539C0.158,-0.562 0.201,-0.59 0.238,-0.623C0.275,-0.656 0.301,-0.688 0.316,-0.719L0.373,-0.719L0.373,0Z" style="fill-rule:nonzero;"/>
            </g>
            <g transform="matrix(24,0,0,24,612.964,333.171)">
                <path d="M0.042,-0.353C0.042,-0.438 0.05,-0.506 0.068,-0.557C0.085,-0.609 0.111,-0.649 0.145,-0.677C0.18,-0.705 0.223,-0.719 0.275,-0.719C0.313,-0.719 0.347,-0.711 0.376,-0.696C0.405,-0.68 0.429,-0.658 0.448,-0.629C0.467,-0.6 0.481,-0.564 0.492,-0.522C0.503,-0.48 0.508,-0.424 0.508,-0.353C0.508,-0.269 0.5,-0.201 0.482,-0.15C0.465,-0.098 0.439,-0.058 0.405,-0.03C0.371,-0.002 0.327,0.012 0.275,0.012C0.206,0.012 0.152,-0.013 0.112,-0.062C0.065,-0.122 0.042,-0.219 0.042,-0.353ZM0.132,-0.353C0.132,-0.236 0.146,-0.157 0.173,-0.118C0.201,-0.08 0.235,-0.06 0.275,-0.06C0.315,-0.06 0.349,-0.08 0.377,-0.119C0.404,-0.158 0.418,-0.236 0.418,-0.353C0.418,-0.471 0.404,-0.549 0.377,-0.588C0.349,-0.627 0.315,-0.646 0.274,-0.646C0.234,-0.646 0.201,-0.629 0.177,-0.595C0.147,-0.551 0.132,-0.471 0.132,-0.353Z" style="fill-rule:nonzero;"/>
            </g>
            <g transform="matrix(24,0,0,24,626.312,333.171)">
                <path d="M0.066,0L0.066,-0.716L0.154,-0.716L0.154,-0.308L0.362,-0.519L0.476,-0.519L0.278,-0.326L0.496,0L0.388,0L0.216,-0.265L0.154,-0.206L0.154,0L0.066,0Z" style="fill-rule:nonzero;"/>
            </g>
        </g>
        <g transform="matrix(1,0,0,1,-12.1713,19.761)">
            <g transform="matrix(24,0,0,24,699.558,427.489)">
                <path d="M0.373,0L0.285,0L0.285,-0.56C0.264,-0.54 0.236,-0.52 0.201,-0.5C0.167,-0.479 0.136,-0.464 0.109,-0.454L0.109,-0.539C0.158,-0.562 0.201,-0.59 0.238,-0.623C0.275,-0.656 0.301,-0.688 0.316,-0.719L0.373,-0.719L0.373,0Z" style="fill-rule:nonzero;"/>
            </g>
            <g transform="matrix(24,0,0,24,712.906,427.489)">
                <path d="M0.066,0L0.066,-0.716L0.154,-0.716L0.154,-0.308L0.362,-0.519L0.476,-0.519L0.278,-0.326L0.496,0L0.388,0L0.216,-0.265L0.154,-0.206L0.154,0L0.066,0Z" style="fill-rule:nonzero;"/>
            </g>
        </g>
        <path d="M970,340L1020,340L1020,230" style="fill:none;stroke:black;stroke-width:1px;"/>
        <g transform="matrix(0.8,0,0,0.6,739,124)">
            <rect x="520" y="310" width="100" height="150" style="fill:none;stroke:black;stroke-width:1.41px;"/>
        </g>
        <g transform="matrix(1,0,0,1,26.608,-28.8432)">
            <g transform="matrix(24,0,0,24,1074,366.023)">
                <path d="M0.282,0L0.004,-0.716L0.107,-0.716L0.293,-0.196C0.308,-0.154 0.32,-0.115 0.331,-0.079C0.342,-0.118 0.354,-0.157 0.369,-0.196L0.563,-0.716L0.659,-0.716L0.379,0L0.282,0Z" style="fill-rule:nonzero;"/>
            </g>
            <g transform="matrix(24,0,0,24,1090.01,366.023)">
                <path d="M0.077,0L0.077,-0.716L0.324,-0.716C0.379,-0.716 0.422,-0.712 0.451,-0.706C0.492,-0.696 0.527,-0.679 0.556,-0.654C0.594,-0.622 0.622,-0.582 0.641,-0.532C0.66,-0.482 0.669,-0.426 0.669,-0.362C0.669,-0.307 0.663,-0.259 0.65,-0.217C0.637,-0.175 0.621,-0.141 0.601,-0.113C0.581,-0.086 0.559,-0.064 0.536,-0.048C0.512,-0.032 0.484,-0.02 0.45,-0.012C0.417,-0.004 0.379,0 0.335,0L0.077,0ZM0.172,-0.084L0.325,-0.084C0.372,-0.084 0.409,-0.089 0.436,-0.098C0.463,-0.106 0.484,-0.119 0.5,-0.135C0.522,-0.157 0.54,-0.187 0.552,-0.225C0.565,-0.263 0.571,-0.309 0.571,-0.363C0.571,-0.438 0.559,-0.496 0.534,-0.536C0.51,-0.576 0.48,-0.603 0.445,-0.617C0.419,-0.626 0.379,-0.631 0.322,-0.631L0.172,-0.631L0.172,-0.084Z" style="fill-rule:nonzero;"/>
            </g>
            <g transform="matrix(24,0,0,24,1107.34,366.023)">
                <path d="M0.077,0L0.077,-0.716L0.324,-0.716C0.379,-0.716 0.422,-0.712 0.451,-0.706C0.492,-0.696 0.527,-0.679 0.556,-0.654C0.594,-0.622 0.622,-0.582 0.641,-0.532C0.66,-0.482 0.669,-0.426 0.669,-0.362C0.669,-0.307 0.663,-0.259 0.65,-0.217C0.637,-0.175 0.621,-0.141 0.601,-0.113C0.581,-0.086 0.559,-0.064 0.536,-0.048C0.512,-0.032 0.484,-0.02 0.45,-0.012C0.417,-0.004 0.379,0 0.335,0L0.077,0ZM0.172,-0.084L0.325,-0.084C0.372,-0.084 0.409,-0.089 0.436,-0.098C0.463,-0.106 0.484,-0.119 0.5,-0.135C0.522,-0.157 0.54,-0.187 0.552,-0.225C0.565,-0.263 0.571,-0.309 0.571,-0.363C0.571,-0.438 0.559,-0.496 0.534,-0.536C0.51,-0.576 0.48,-0.603 0.445,-0.617C0.419,-0.626 0.379,-0.631 0.322,-0.631L0.172,-0.631L0.172,-0.084Z" style="fill-rule:nonzero;"/>
            </g>
        </g>
        <g transform="matrix(1,0,0,1,-29.927,-22.9731)">
            <g transform="matrix(24,0,0,24,1268.08,360.153)">
                <path d="M0.077,0L0.077,-0.716L0.324,-0.716C0.379,-0.716 0.422,-0.712 0.451,-0.706C0.492,-0.696 0.527,-0.679 0.556,-0.654C0.594,-0.622 0.622,-0.582 0.641,-0.532C0.66,-0.482 0.669,-0.426 0.669,-0.362C0.669,-0.307 0.663,-0.259 0.65,-0.217C0.637,-0.175 0.621,-0.141 0.601,-0.113C0.581,-0.086 0.559,-0.064 0.536,-0.048C0.512,-0.032 0.484,-0.02 0.45,-0.012C0.417,-0.004 0.379,0 0.335,0L0.077,0ZM0.172,-0.084L0.325,-0.084C0.372,-0.084 0.409,-0.089 0.436,-0.098C0.463,-0.106 0.484,-0.119 0.5,-0.135C0.522,-0.157 0.54,-0.187 0.552,-0.225C0.565,-0.263 0.571,-0.309 0.571,-0.363C0.571,-0.438 0.559,-0.496 0.534,-0.536C0.51,-0.576 0.48,-0.603 0.445,-0.617C0.419,-0.626 0.379,-0.631 0.322,-0.631L0.172,-0.631L0.172,-0.084Z" style="fill-rule:nonzero;"/>
            </g>
            <g transform="matrix(24,0,0,24,1285.41,360.153)">
                <rect x="0.093" y="-0.716" width="0.095" height="0.716" style="fill-rule:nonzero;"/>
            </g>
            <g transform="matrix(24,0,0,24,1292.08,360.153)">
                <path d="M0.076,0L0.076,-0.716L0.173,-0.716L0.549,-0.154L0.549,-0.716L0.64,-0.716L0.64,0L0.543,0L0.167,-0.563L0.167,0L0.076,0Z" style="fill-rule:nonzero;"/>
            </g>
        </g>
        <g transform="matrix(1,0,0,1,33.5331,-73.5342)">
            <g transform="matrix(24,0,0,24,1048.96,441.019)">
                <path d="M0.077,0L0.077,-0.716L0.324,-0.716C0.379,-0.716 0.422,-0.712 0.451,-0.706C0.492,-0.696 0.527,-0.679 0.556,-0.654C0.594,-0.622 0.622,-0.582 0.641,-0.532C0.66,-0.482 0.669,-0.426 0.669,-0.362C0.669,-0.307 0.663,-0.259 0.65,-0.217C0.637,-0.175 0.621,-0.141 0.601,-0.113C0.581,-0.086 0.559,-0.064 0.536,-0.048C0.512,-0.032 0.484,-0.02 0.45,-0.012C0.417,-0.004 0.379,0 0.335,0L0.077,0ZM0.172,-0.084L0.325,-0.084C0.372,-0.084 0.409,-0.089 0.436,-0.098C0.463,-0.106 0.484,-0.119 0.5,-0.135C0.522,-0.157 0.54,-0.187 0.552,-0.225C0.565,-0.263 0.571,-0.309 0.571,-0.363C0.571,-0.438 0.559,-0.496 0.534,-0.536C0.51,-0.576 0.48,-0.603 0.445,-0.617C0.419,-0.626 0.379,-0.631 0.322,-0.631L0.172,-0.631L0.172,-0.084Z" style="fill-rule:nonzero;"/>
            </g>
            <g transform="matrix(24,0,0,24,1066.29,441.019)">
                <path d="M0.048,-0.349C0.048,-0.467 0.08,-0.56 0.144,-0.628C0.208,-0.695 0.29,-0.729 0.391,-0.729C0.457,-0.729 0.517,-0.713 0.57,-0.681C0.623,-0.65 0.663,-0.606 0.691,-0.549C0.719,-0.493 0.733,-0.429 0.733,-0.357C0.733,-0.284 0.718,-0.219 0.689,-0.162C0.66,-0.105 0.618,-0.061 0.564,-0.032C0.511,-0.003 0.453,0.012 0.391,0.012C0.323,0.012 0.263,-0.004 0.21,-0.037C0.157,-0.069 0.117,-0.114 0.089,-0.17C0.062,-0.226 0.048,-0.286 0.048,-0.349ZM0.146,-0.347C0.146,-0.261 0.169,-0.193 0.216,-0.143C0.262,-0.094 0.32,-0.069 0.39,-0.069C0.461,-0.069 0.52,-0.094 0.566,-0.144C0.612,-0.194 0.635,-0.265 0.635,-0.357C0.635,-0.416 0.625,-0.467 0.606,-0.51C0.586,-0.553 0.557,-0.587 0.519,-0.611C0.481,-0.635 0.439,-0.647 0.392,-0.647C0.325,-0.647 0.267,-0.624 0.219,-0.578C0.17,-0.532 0.146,-0.455 0.146,-0.347Z" style="fill-rule:nonzero;"/>
            </g>
            <g transform="matrix(24,0,0,24,1084.96,441.019)">
                <path d="M0.547,-0.716L0.642,-0.716L0.642,-0.302C0.642,-0.23 0.633,-0.173 0.617,-0.131C0.601,-0.089 0.572,-0.054 0.529,-0.028C0.487,-0.001 0.431,0.012 0.362,0.012C0.295,0.012 0.24,0.001 0.197,-0.022C0.155,-0.046 0.124,-0.079 0.106,-0.123C0.088,-0.167 0.079,-0.226 0.079,-0.302L0.079,-0.716L0.173,-0.716L0.173,-0.303C0.173,-0.241 0.179,-0.195 0.191,-0.165C0.202,-0.136 0.222,-0.113 0.25,-0.097C0.278,-0.081 0.313,-0.073 0.354,-0.073C0.423,-0.073 0.473,-0.089 0.502,-0.121C0.532,-0.152 0.547,-0.213 0.547,-0.303L0.547,-0.716Z" style="fill-rule:nonzero;"/>
            </g>
            <g transform="matrix(24,0,0,24,1102.29,441.019)">
                <path d="M0.259,0L0.259,-0.631L0.023,-0.631L0.023,-0.716L0.591,-0.716L0.591,-0.631L0.354,-0.631L0.354,0L0.259,0Z" style="fill-rule:nonzero;"/>
            </g>
        </g>
        <g transform="matrix(1,0,0,1,-53.7449,-52.1283)">
            <g transform="matrix(24,0,0,24,1293.64,419.628)">
                <path d="M0.282,0L0.004,-0.716L0.107,-0.716L0.293,-0.196C0.308,-0.154 0.32,-0.115 0.331,-0.079C0.342,-0.118 0.354,-0.157 0.369,-0.196L0.563,-0.716L0.659,-0.716L0.379,0L0.282,0Z" style="fill-rule:nonzero;"/>
            </g>
            <g transform="matrix(24,0,0,24,1309.65,419.628)">
                <path d="M0.045,-0.23L0.134,-0.238C0.139,-0.202 0.148,-0.173 0.164,-0.15C0.179,-0.127 0.203,-0.108 0.236,-0.094C0.268,-0.08 0.305,-0.073 0.346,-0.073C0.382,-0.073 0.414,-0.078 0.441,-0.089C0.469,-0.1 0.49,-0.114 0.503,-0.133C0.517,-0.152 0.523,-0.172 0.523,-0.194C0.523,-0.217 0.517,-0.236 0.504,-0.253C0.491,-0.27 0.469,-0.284 0.439,-0.295C0.42,-0.303 0.378,-0.315 0.312,-0.33C0.246,-0.346 0.2,-0.361 0.174,-0.375C0.14,-0.393 0.114,-0.415 0.097,-0.442C0.081,-0.468 0.072,-0.498 0.072,-0.531C0.072,-0.567 0.083,-0.601 0.103,-0.632C0.124,-0.663 0.153,-0.687 0.193,-0.704C0.232,-0.72 0.276,-0.728 0.324,-0.728C0.377,-0.728 0.424,-0.719 0.465,-0.702C0.505,-0.685 0.536,-0.66 0.558,-0.627C0.58,-0.594 0.592,-0.556 0.593,-0.514L0.502,-0.507C0.498,-0.553 0.481,-0.587 0.453,-0.61C0.425,-0.633 0.383,-0.645 0.328,-0.645C0.271,-0.645 0.229,-0.634 0.203,-0.613C0.177,-0.592 0.164,-0.567 0.164,-0.537C0.164,-0.511 0.173,-0.49 0.191,-0.474C0.21,-0.457 0.257,-0.44 0.334,-0.423C0.411,-0.405 0.464,-0.39 0.493,-0.377C0.534,-0.358 0.565,-0.333 0.585,-0.304C0.605,-0.274 0.615,-0.241 0.615,-0.202C0.615,-0.164 0.604,-0.128 0.582,-0.094C0.56,-0.061 0.529,-0.035 0.488,-0.016C0.447,0.003 0.401,0.012 0.35,0.012C0.285,0.012 0.231,0.003 0.187,-0.016C0.143,-0.035 0.109,-0.063 0.084,-0.101C0.059,-0.139 0.046,-0.182 0.045,-0.23Z" style="fill-rule:nonzero;"/>
            </g>
            <g transform="matrix(24,0,0,24,1325.66,419.628)">
                <path d="M0.045,-0.23L0.134,-0.238C0.139,-0.202 0.148,-0.173 0.164,-0.15C0.179,-0.127 0.203,-0.108 0.236,-0.094C0.268,-0.08 0.305,-0.073 0.346,-0.073C0.382,-0.073 0.414,-0.078 0.441,-0.089C0.469,-0.1 0.49,-0.114 0.503,-0.133C0.517,-0.152 0.523,-0.172 0.523,-0.194C0.523,-0.217 0.517,-0.236 0.504,-0.253C0.491,-0.27 0.469,-0.284 0.439,-0.295C0.42,-0.303 0.378,-0.315 0.312,-0.33C0.246,-0.346 0.2,-0.361 0.174,-0.375C0.14,-0.393 0.114,-0.415 0.097,-0.442C0.081,-0.468 0.072,-0.498 0.072,-0.531C0.072,-0.567 0.083,-0.601 0.103,-0.632C0.124,-0.663 0.153,-0.687 0.193,-0.704C0.232,-0.72 0.276,-0.728 0.324,-0.728C0.377,-0.728 0.424,-0.719 0.465,-0.702C0.505,-0.685 0.536,-0.66 0.558,-0.627C0.58,-0.594 0.592,-0.556 0.593,-0.514L0.502,-0.507C0.498,-0.553 0.481,-0.587 0.453,-0.61C0.425,-0.633 0.383,-0.645 0.328,-0.645C0.271,-0.645 0.229,-0.634 0.203,-0.613C0.177,-0.592 0.164,-0.567 0.164,-0.537C0.164,-0.511 0.173,-0.49 0.191,-0.474C0.21,-0.457 0.257,-0.44 0.334,-0.423C0.411,-0.405 0.464,-0.39 0.493,-0.377C0.534,-0.358 0.565,-0.333 0.585,-0.304C0.605,-0.274 0.615,-0.241 0.615,-0.202C0.615,-0.164 0.604,-0.128 0.582,-0.094C0.56,-0.061 0.529,-0.035 0.488,-0.016C0.447,0.003 0.401,0.012 0.35,0.012C0.285,0.012 0.231,0.003 0.187,-0.016C0.143,-0.035 0.109,-0.063 0.084,-0.101C0.059,-0.139 0.046,-0.182 0.045,-0.23Z" style="fill-rule:nonzero;"/>
            </g>
        </g>
        <g transform="matrix(1.11111,0,0,1,-111.667,-50)">
            <path d="M1113,420L1140,420" style="fill:none;stroke:black;stroke-width:0.95px;"/>
        </g>
        <g transform="matrix(1,0,0,1,15,-40)">
            <path d="M1200,440L1220,420" style="fill:none;stroke:black;stroke-width:1px;"/>
        </g>
        <path d="M1070,230L1070,340L1155,340" style="fill:none;stroke:black;stroke-width:1px;"/>
        <g transform="matrix(1,0,0,1,50,0)">
            <path d="M1185,370L1320,370L1320,480" style="fill:none;stroke:black;stroke-width:1px;"/>
        </g>
        <g transform="matrix(1,0,0,1,50,-1.7053e-13)">
            <path d="M1300,480L1340,480" style="fill:none;stroke:black;stroke-width:1px;"/>
        </g>
        <g transform="matrix(1,0,0,1,50,-1.7053e-13)">
            <path d="M1300,500L1310,480" style="fill:none;stroke:black;stroke-width:1px;"/>
        </g>
        <g transform="matrix(1,0,0,1,50,-1.7053e-13)">
            <path d="M1310,500L1320,480" style="fill:none;stroke:black;stroke-width:1px;"/>
        </g>
        <g transform="matrix(1,0,0,1,50,-1.7053e-13)">
            <path d="M1320,500L1330,480" style="fill:none;stroke:black;stroke-width:1px;"/>
        </g>
        <g transform="matrix(0.8,0,0,0.6,1039,124)">
            <rect x="520" y="310" width="100" height="150" style="fill:none;stroke:black;stroke-width:1.41px;"/>
        </g>
        <g transform="matrix(1,0,0,1,326.608,-28.8432)">
            <g transform="matrix(24,0,0,24,1074,366.023)">
                <path d="M0.282,0L0.004,-0.716L0.107,-0.716L0.293,-0.196C0.308,-0.154 0.32,-0.115 0.331,-0.079C0.342,-0.118 0.354,-0.157 0.369,-0.196L0.563,-0.716L0.659,-0.716L0.379,0L0.282,0Z" style="fill-rule:nonzero;"/>
            </g>
            <g transform="matrix(24,0,0,24,1090.01,366.023)">
                <path d="M0.077,0L0.077,-0.716L0.324,-0.716C0.379,-0.716 0.422,-0.712 0.451,-0.706C0.492,-0.696 0.527,-0.679 0.556,-0.654C0.594,-0.622 0.622,-0.582 0.641,-0.532C0.66,-0.482 0.669,-0.426 0.669,-0.362C0.669,-0.307 0.663,-0.259 0.65,-0.217C0.637,-0.175 0.621,-0.141 0.601,-0.113C0.581,-0.086 0.559,-0.064 0.536,-0.048C0.512,-0.032 0.484,-0.02 0.45,-0.012C0.417,-0.004 0.379,0 0.335,0L0.077,0ZM0.172,-0.084L0.325,-0.084C0.372,-0.084 0.409,-0.089 0.436,-0.098C0.463,-0.106 0.484,-0.119 0.5,-0.135C0.522,-0.157 0.54,-0.187 0.552,-0.225C0.565,-0.263 0.571,-0.309 0.571,-0.363C0.571,-0.438 0.559,-0.496 0.534,-0.536C0.51,-0.576 0.48,-0.603 0.445,-0.617C0.419,-0.626 0.379,-0.631 0.322,-0.631L0.172,-0.631L0.172,-0.084Z" style="fill-rule:nonzero;"/>
            </g>
            <g transform="matrix(24,0,0,24,1107.34,366.023)">
                <path d="M0.077,0L0.077,-0.716L0.324,-0.716C0.379,-0.716 0.422,-0.712 0.451,-0.706C0.492,-0.696 0.527,-0.679 0.556,-0.654C0.594,-0.622 0.622,-0.582 0.641,-0.532C0.66,-0.482 0.669,-0.426 0.669,-0.362C0.669,-0.307 0.663,-0.259 0.65,-0.217C0.637,-0.175 0.621,-0.141 0.601,-0.113C0.581,-0.086 0.559,-0.064 0.536,-0.048C0.512,-0.032 0.484,-0.02 0.45,-0.012C0.417,-0.004 0.379,0 0.335,0L0.077,0ZM0.172,-0.084L0.325,-0.084C0.372,-0.084 0.409,-0.089 0.436,-0.098C0.463,-0.106 0.484,-0.119 0.5,-0.135C0.522,-0.157 0.54,-0.187 0.552,-0.225C0.565,-0.263 0.571,-0.309 0.571,-0.363C0.571,-0.438 0.559,-0.496 0.534,-0.536C0.51,-0.576 0.48,-0.603 0.445,-0.617C0.419,-0.626 0.379,-0.631 0.322,-0.631L0.172,-0.631L0.172,-0.084Z" style="fill-rule:nonzero;"/>
            </g>
        </g>
        <g transform="matrix(1,0,0,1,270.073,-22.9731)">
            <g transform="matrix(24,0,0,24,1268.08,360.153)">
                <path d="M0.077,0L0.077,-0.716L0.324,-0.716C0.379,-0.716 0.422,-0.712 0.451,-0.706C0.492,-0.696 0.527,-0.679 0.556,-0.654C0.594,-0.622 0.622,-0.582 0.641,-0.532C0.66,-0.482 0.669,-0.426 0.669,-0.362C0.669,-0.307 0.663,-0.259 0.65,-0.217C0.637,-0.175 0.621,-0.141 0.601,-0.113C0.581,-0.086 0.559,-0.064 0.536,-0.048C0.512,-0.032 0.484,-0.02 0.45,-0.012C0.417,-0.004 0.379,0 0.335,0L0.077,0ZM0.172,-0.084L0.325,-0.084C0.372,-0.084 0.409,-0.089 0.436,-0.098C0.463,-0.106 0.484,-0.119 0.5,-0.135C0.522,-0.157 0.54,-0.187 0.552,-0.225C0.565,-0.263 0.571,-0.309 0.571,-0.363C0.571,-0.438 0.559,-0.496 0.534,-0.536C0.51,-0.576 0.48,-0.603 0.445,-0.617C0.419,-0.626 0.379,-0.631 0.322,-0.631L0.172,-0.631L0.172,-0.084Z" style="fill-rule:nonzero;"/>
            </g>
            <g transform="matrix(24,0,0,24,1285.41,360.153)">
                <rect x="0.093" y="-0.716" width="0.095" height="0.716" style="fill-rule:nonzero;"/>
            </g>
            <g transform="matrix(24,0,0,24,1292.08,360.153)">
                <path d="M0.076,0L0.076,-0.716L0.173,-0.716L0.549,-0.154L0.549,-0.716L0.64,-0.716L0.64,0L0.543,0L0.167,-0.563L0.167,0L0.076,0Z" style="fill-rule:nonzero;"/>
            </g>
        </g>
        <g transform="matrix(1,0,0,1,333.533,-73.5342)">
            <g transform="matrix(24,0,0,24,1048.96,441.019)">
                <path d="M0.077,0L0.077,-0.716L0.324,-0.716C0.379,-0.716 0.422,-0.712 0.451,-0.706C0.492,-0.696 0.527,-0.679 0.556,-0.654C0.594,-0.622 0.622,-0.582 0.641,-0.532C0.66,-0.482 0.669,-0.426 0.669,-0.362C0.669,-0.307 0.663,-0.259 0.65,-0.217C0.637,-0.175 0.621,-0.141 0.601,-0.113C0.581,-0.086 0.559,-0.064 0.536,-0.048C0.512,-0.032 0.484,-0.02 0.45,-0.012C0.417,-0.004 0.379,0 0.335,0L0.077,0ZM0.172,-0.084L0.325,-0.084C0.372,-0.084 0.409,-0.089 0.436,-0.098C0.463,-0.106 0.484,-0.119 0.5,-0.135C0.522,-0.157 0.54,-0.187 0.552,-0.225C0.565,-0.263 0.571,-0.309 0.571,-0.363C0.571,-0.438 0.559,-0.496 0.534,-0.536C0.51,-0.576 0.48,-0.603 0.445,-0.617C0.419,-0.626 0.379,-0.631 0.322,-0.631L0.172,-0.631L0.172,-0.084Z" style="fill-rule:nonzero;"/>
            </g>
            <g transform="matrix(24,0,0,24,1066.29,441.019)">
                <path d="M0.048,-0.349C0.048,-0.467 0.08,-0.56 0.144,-0.628C0.208,-0.695 0.29,-0.729 0.391,-0.729C0.457,-0.729 0.517,-0.713 0.57,-0.681C0.623,-0.65 0.663,-0.606 0.691,-0.549C0.719,-0.493 0.733,-0.429 0.733,-0.357C0.733,-0.284 0.718,-0.219 0.689,-0.162C0.66,-0.105 0.618,-0.061 0.564,-0.032C0.511,-0.003 0.453,0.012 0.391,0.012C0.323,0.012 0.263,-0.004 0.21,-0.037C0.157,-0.069 0.117,-0.114 0.089,-0.17C0.062,-0.226 0.048,-0.286 0.048,-0.349ZM0.146,-0.347C0.146,-0.261 0.169,-0.193 0.216,-0.143C0.262,-0.094 0.32,-0.069 0.39,-0.069C0.461,-0.069 0.52,-0.094 0.566,-0.144C0.612,-0.194 0.635,-0.265 0.635,-0.357C0.635,-0.416 0.625,-0.467 0.606,-0.51C0.586,-0.553 0.557,-0.587 0.519,-0.611C0.481,-0.635 0.439,-0.647 0.392,-0.647C0.325,-0.647 0.267,-0.624 0.219,-0.578C0.17,-0.532 0.146,-0.455 0.146,-0.347Z" style="fill-rule:nonzero;"/>
            </g>
            <g transform="matrix(24,0,0,24,1084.96,441.019)">
                <path d="M0.547,-0.716L0.642,-0.716L0.642,-0.302C0.642,-0.23 0.633,-0.173 0.617,-0.131C0.601,-0.089 0.572,-0.054 0.529,-0.028C0.487,-0.001 0.431,0.012 0.362,0.012C0.295,0.012 0.24,0.001 0.197,-0.022C0.155,-0.046 0.124,-0.079 0.106,-0.123C0.088,-0.167 0.079,-0.226 0.079,-0.302L0.079,-0.716L0.173,-0.716L0.173,-0.303C0.173,-0.241 0.179,-0.195 0.191,-0.165C0.202,-0.136 0.222,-0.113 0.25,-0.097C0.278,-0.081 0.313,-0.073 0.354,-0.073C0.423,-0.073 0.473,-0.089 0.502,-0.121C0.532,-0.152 0.547,-0.213 0.547,-0.303L0.547,-0.716Z" style="fill-rule:nonzero;"/>
            </g>
            <g transform="matrix(24,0,0,24,1102.29,441.019)">
                <path d="M0.259,0L0.259,-0.631L0.023,-0.631L0.023,-0.716L0.591,-0.716L0.591,-0.631L0.354,-0.631L0.354,0L0.259,0Z" style="fill-rule:nonzero;"/>
            </g>
        </g>
        <g transform="matrix(1,0,0,1,246.255,-52.1283)">
            <g transform="matrix(24,0,0,24,1293.64,419.628)">
                <path d="M0.282,0L0.004,-0.716L0.107,-0.716L0.293,-0.196C0.308,-0.154 0.32,-0.115 0.331,-0.079C0.342,-0.118 0.354,-0.157 0.369,-0.196L0.563,-0.716L0.659,-0.716L0.379,0L0.282,0Z" style="fill-rule:nonzero;"/>
            </g>
            <g transform="matrix(24,0,0,24,1309.65,419.628)">
                <path d="M0.045,-0.23L0.134,-0.238C0.139,-0.202 0.148,-0.173 0.164,-0.15C0.179,-0.127 0.203,-0.108 0.236,-0.094C0.268,-0.08 0.305,-0.073 0.346,-0.073C0.382,-0.073 0.414,-0.078 0.441,-0.089C0.469,-0.1 0.49,-0.114 0.503,-0.133C0.517,-0.152 0.523,-0.172 0.523,-0.194C0.523,-0.217 0.517,-0.236 0.504,-0.253C0.491,-0.27 0.469,-0.284 0.439,-0.295C0.42,-0.303 0.378,-0.315 0.312,-0.33C0.246,-0.346 0.2,-0.361 0.174,-0.375C0.14,-0.393 0.114,-0.415 0.097,-0.442C0.081,-0.468 0.072,-0.498 0.072,-0.531C0.072,-0.567 0.083,-0.601 0.103,-0.632C0.124,-0.663 0.153,-0.687 0.193,-0.704C0.232,-0.72 0.276,-0.728 0.324,-0.728C0.377,-0.728 0.424,-0.719 0.465,-0.702C0.505,-0.685 0.536,-0.66 0.558,-0.627C0.58,-0.594 0.592,-0.556 0.593,-0.514L0.502,-0.507C0.498,-0.553 0.481,-0.587 0.453,-0.61C0.425,-0.633 0.383,-0.645 0.328,-0.645C0.271,-0.645 0.229,-0.634 0.203,-0.613C0.177,-0.592 0.164,-0.567 0.164,-0.537C0.164,-0.511 0.173,-0.49 0.191,-0.474C0.21,-0.457 0.257,-0.44 0.334,-0.423C0.411,-0.405 0.464,-0.39 0.493,-0.377C0.534,-0.358 0.565,-0.333 0.585,-0.304C0.605,-0.274 0.615,-0.241 0.615,-0.202C0.615,-0.164 0.604,-0.128 0.582,-0.094C0.56,-0.061 0.529,-0.035 0.488,-0.016C0.447,0.003 0.401,0.012 0.35,0.012C0.285,0.012 0.231,0.003 0.187,-0.016C0.143,-0.035 0.109,-0.063 0.084,-0.101C0.059,-0.139 0.046,-0.182 0.045,-0.23Z" style="fill-rule:nonzero;"/>
            </g>
            <g transform="matrix(24,0,0,24,1325.66,419.628)">
                <path d="M0.045,-0.23L0.134,-0.238C0.139,-0.202 0.148,-0.173 0.164,-0.15C0.179,-0.127 0.203,-0.108 0.236,-0.094C0.268,-0.08 0.305,-0.073 0.346,-0.073C0.382,-0.073 0.414,-0.078 0.441,-0.089C0.469,-0.1 0.49,-0.114 0.503,-0.133C0.517,-0.152 0.523,-0.172 0.523,-0.194C0.523,-0.217 0.517,-0.236 0.504,-0.253C0.491,-0.27 0.469,-0.284 0.439,-0.295C0.42,-0.303 0.378,-0.315 0.312,-0.33C0.246,-0.346 0.2,-0.361 0.174,-0.375C0.14,-0.393 0.114,-0.415 0.097,-0.442C0.081,-0.468 0.072,-0.498 0.072,-0.531C0.072,-0.567 0.083,-0.601 0.103,-0.632C0.124,-0.663 0.153,-0.687 0.193,-0.704C0.232,-0.72 0.276,-0.728 0.324,-0.728C0.377,-0.728 0.424,-0.719 0.465,-0.702C0.505,-0.685 0.536,-0.66 0.558,-0.627C0.58,-0.594 0.592,-0.556 0.593,-0.514L0.502,-0.507C0.498,-0.553 0.481,-0.587 0.453,-0.61C0.425,-0.633 0.383,-0.645 0.328,-0.645C0.271,-0.645 0.229,-0.634 0.203,-0.613C0.177,-0.592 0.164,-0.567 0.164,-0.537C0.164,-0.511 0.173,-0.49 0.191,-0.474C0.21,-0.457 0.257,-0.44 0.334,-0.423C0.411,-0.405 0.464,-0.39 0.493,-0.377C0.534,-0.358 0.565,-0.333 0.585,-0.304C0.605,-0.274 0.615,-0.241 0.615,-0.202C0.615,-0.164 0.604,-0.128 0.582,-0.094C0.56,-0.061 0.529,-0.035 0.488,-0.016C0.447,0.003 0.401,0.012 0.35,0.012C0.285,0.012 0.231,0.003 0.187,-0.016C0.143,-0.035 0.109,-0.063 0.084,-0.101C0.059,-0.139 0.046,-0.182 0.045,-0.23Z" style="fill-rule:nonzero;"/>
            </g>
        </g>
        <g transform="matrix(1.11111,0,0,1,188.333,-50)">
            <path d="M1113,420L1140,420" style="fill:none;stroke:black;stroke-width:0.95px;"/>
        </g>
        <g transform="matrix(1,0,0,1,315,-40)">
            <path d="M1200,440L1220,420" style="fill:none;stroke:black;stroke-width:1px;"/>
        </g>
        <g transform="matrix(1,0,0,1,300,1.13687e-13)">
            <path d="M1070,230L1070,340L1155,340" style="fill:none;stroke:black;stroke-width:1px;"/>
        </g>
        <g transform="matrix(1,0,0,1,350,0)">
            <path d="M1185,370L1320,370L1320,480" style="fill:none;stroke:black;stroke-width:1px;"/>
        </g>
        <g transform="matrix(1,0,0,1,350,-1.7053e-13)">
            <path d="M1300,480L1340,480" style="fill:none;stroke:black;stroke-width:1px;"/>
        </g>
        <g transform="matrix(1,0,0,1,350,-1.7053e-13)">
            <path d="M1300,500L1310,480" style="fill:none;stroke:black;stroke-width:1px;"/>
        </g>
        <g transform="matrix(1,0,0,1,350,-1.7053e-13)">
            <path d="M1310,500L1320,480" style="fill:none;stroke:black;stroke-width:1px;"/>
        </g>
        <g transform="matrix(1,0,0,1,350,-1.7053e-13)">
            <path d="M1320,500L1330,480" style="fill:none;stroke:black;stroke-width:1px;"/>
        </g>
        <path d="M965,370L1020,370L1020,440L1320,440L1320,340L1235,340" style="fill:none;stroke:black;stroke-width:1px;"/>
        <g transform="matrix(1,0,0,1,-31.8722,5.53176)">
            <g transform="matrix(24,0,0,24,1171.58,291.941)">
                <path d="M0.202,0L0.012,-0.716L0.109,-0.716L0.218,-0.247C0.23,-0.197 0.24,-0.149 0.249,-0.1C0.267,-0.177 0.278,-0.221 0.281,-0.232L0.417,-0.716L0.531,-0.716L0.634,-0.354C0.66,-0.264 0.678,-0.179 0.689,-0.1C0.699,-0.145 0.71,-0.197 0.725,-0.256L0.837,-0.716L0.933,-0.716L0.736,0L0.645,0L0.494,-0.545C0.481,-0.591 0.474,-0.619 0.472,-0.629C0.464,-0.597 0.457,-0.569 0.451,-0.545L0.299,0L0.202,0Z" style="fill-rule:nonzero;"/>
            </g>
            <g transform="matrix(24,0,0,24,1194.23,291.941)">
                <path d="M0.045,-0.23L0.134,-0.238C0.139,-0.202 0.148,-0.173 0.164,-0.15C0.179,-0.127 0.203,-0.108 0.236,-0.094C0.268,-0.08 0.305,-0.073 0.346,-0.073C0.382,-0.073 0.414,-0.078 0.441,-0.089C0.469,-0.1 0.49,-0.114 0.503,-0.133C0.517,-0.152 0.523,-0.172 0.523,-0.194C0.523,-0.217 0.517,-0.236 0.504,-0.253C0.491,-0.27 0.469,-0.284 0.439,-0.295C0.42,-0.303 0.378,-0.315 0.312,-0.33C0.246,-0.346 0.2,-0.361 0.174,-0.375C0.14,-0.393 0.114,-0.415 0.097,-0.442C0.081,-0.468 0.072,-0.498 0.072,-0.531C0.072,-0.567 0.083,-0.601 0.103,-0.632C0.124,-0.663 0.153,-0.687 0.193,-0.704C0.232,-0.72 0.276,-0.728 0.324,-0.728C0.377,-0.728 0.424,-0.719 0.465,-0.702C0.505,-0.685 0.536,-0.66 0.558,-0.627C0.58,-0.594 0.592,-0.556 0.593,-0.514L0.502,-0.507C0.498,-0.553 0.481,-0.587 0.453,-0.61C0.425,-0.633 0.383,-0.645 0.328,-0.645C0.271,-0.645 0.229,-0.634 0.203,-0.613C0.177,-0.592 0.164,-0.567 0.164,-0.537C0.164,-0.511 0.173,-0.49 0.191,-0.474C0.21,-0.457 0.257,-0.44 0.334,-0.423C0.411,-0.405 0.464,-0.39 0.493,-0.377C0.534,-0.358 0.565,-0.333 0.585,-0.304C0.605,-0.274 0.615,-0.241 0.615,-0.202C0.615,-0.164 0.604,-0.128 0.582,-0.094C0.56,-0.061 0.529,-0.035 0.488,-0.016C0.447,0.003 0.401,0.012 0.35,0.012C0.285,0.012 0.231,0.003 0.187,-0.016C0.143,-0.035 0.109,-0.063 0.084,-0.101C0.059,-0.139 0.046,-0.182 0.045,-0.23Z" style="fill-rule:nonzero;"/>
            </g>
            <g transform="matrix(24,0,0,24,1210.24,291.941)">
                <path d="M0.503,-0.084L0.503,0L0.03,0C0.03,-0.021 0.033,-0.042 0.041,-0.061C0.053,-0.093 0.072,-0.125 0.098,-0.156C0.125,-0.188 0.163,-0.224 0.213,-0.265C0.291,-0.328 0.344,-0.379 0.371,-0.416C0.398,-0.454 0.412,-0.489 0.412,-0.522C0.412,-0.557 0.4,-0.586 0.375,-0.61C0.35,-0.634 0.317,-0.646 0.277,-0.646C0.235,-0.646 0.201,-0.633 0.176,-0.608C0.15,-0.583 0.138,-0.547 0.137,-0.502L0.047,-0.512C0.053,-0.579 0.076,-0.63 0.117,-0.666C0.157,-0.701 0.211,-0.719 0.279,-0.719C0.348,-0.719 0.402,-0.7 0.442,-0.662C0.482,-0.624 0.502,-0.576 0.502,-0.52C0.502,-0.491 0.497,-0.463 0.485,-0.436C0.473,-0.408 0.454,-0.379 0.427,-0.348C0.399,-0.318 0.354,-0.276 0.291,-0.222C0.238,-0.178 0.204,-0.148 0.189,-0.132C0.174,-0.116 0.162,-0.1 0.152,-0.084L0.503,-0.084Z" style="fill-rule:nonzero;"/>
            </g>
            <g transform="matrix(24,0,0,24,1223.59,291.941)">
                <path d="M0.177,-0.388C0.14,-0.402 0.113,-0.421 0.096,-0.445C0.078,-0.47 0.069,-0.5 0.069,-0.534C0.069,-0.586 0.088,-0.63 0.125,-0.666C0.163,-0.701 0.213,-0.719 0.275,-0.719C0.337,-0.719 0.388,-0.701 0.426,-0.664C0.464,-0.628 0.483,-0.584 0.483,-0.532C0.483,-0.499 0.474,-0.47 0.457,-0.445C0.439,-0.42 0.413,-0.402 0.377,-0.388C0.421,-0.374 0.455,-0.351 0.478,-0.319C0.501,-0.287 0.512,-0.249 0.512,-0.205C0.512,-0.143 0.491,-0.092 0.447,-0.05C0.404,-0.009 0.347,0.012 0.276,0.012C0.206,0.012 0.149,-0.009 0.105,-0.051C0.062,-0.092 0.041,-0.145 0.041,-0.207C0.041,-0.254 0.052,-0.293 0.076,-0.324C0.1,-0.355 0.133,-0.377 0.177,-0.388ZM0.159,-0.537C0.159,-0.503 0.17,-0.476 0.192,-0.454C0.214,-0.433 0.242,-0.422 0.277,-0.422C0.311,-0.422 0.338,-0.433 0.36,-0.454C0.382,-0.475 0.393,-0.501 0.393,-0.532C0.393,-0.564 0.381,-0.592 0.359,-0.614C0.337,-0.635 0.309,-0.646 0.276,-0.646C0.242,-0.646 0.215,-0.636 0.192,-0.614C0.17,-0.593 0.159,-0.567 0.159,-0.537ZM0.131,-0.207C0.131,-0.181 0.137,-0.157 0.149,-0.134C0.161,-0.11 0.178,-0.092 0.202,-0.079C0.225,-0.066 0.25,-0.06 0.277,-0.06C0.319,-0.06 0.354,-0.074 0.381,-0.101C0.409,-0.128 0.422,-0.162 0.422,-0.204C0.422,-0.246 0.408,-0.281 0.38,-0.309C0.352,-0.336 0.317,-0.35 0.274,-0.35C0.233,-0.35 0.199,-0.336 0.172,-0.309C0.144,-0.282 0.131,-0.248 0.131,-0.207Z" style="fill-rule:nonzero;"/>
            </g>
            <g transform="matrix(24,0,0,24,1236.93,291.941)">
                <path d="M0.373,0L0.285,0L0.285,-0.56C0.264,-0.54 0.236,-0.52 0.201,-0.5C0.167,-0.479 0.136,-0.464 0.109,-0.454L0.109,-0.539C0.158,-0.562 0.201,-0.59 0.238,-0.623C0.275,-0.656 0.301,-0.688 0.316,-0.719L0.373,-0.719L0.373,0Z" style="fill-rule:nonzero;"/>
            </g>
            <g transform="matrix(24,0,0,24,1250.28,291.941)">
                <path d="M0.503,-0.084L0.503,0L0.03,0C0.03,-0.021 0.033,-0.042 0.041,-0.061C0.053,-0.093 0.072,-0.125 0.098,-0.156C0.125,-0.188 0.163,-0.224 0.213,-0.265C0.291,-0.328 0.344,-0.379 0.371,-0.416C0.398,-0.454 0.412,-0.489 0.412,-0.522C0.412,-0.557 0.4,-0.586 0.375,-0.61C0.35,-0.634 0.317,-0.646 0.277,-0.646C0.235,-0.646 0.201,-0.633 0.176,-0.608C0.15,-0.583 0.138,-0.547 0.137,-0.502L0.047,-0.512C0.053,-0.579 0.076,-0.63 0.117,-0.666C0.157,-0.701 0.211,-0.719 0.279,-0.719C0.348,-0.719 0.402,-0.7 0.442,-0.662C0.482,-0.624 0.502,-0.576 0.502,-0.52C0.502,-0.491 0.497,-0.463 0.485,-0.436C0.473,-0.408 0.454,-0.379 0.427,-0.348C0.399,-0.318 0.354,-0.276 0.291,-0.222C0.238,-0.178 0.204,-0.148 0.189,-0.132C0.174,-0.116 0.162,-0.1 0.152,-0.084L0.503,-0.084Z" style="fill-rule:nonzero;"/>
            </g>
            <g transform="matrix(24,0,0,24,1263.63,291.941)">
                <path d="M0.073,0L0.073,-0.716L0.342,-0.716C0.396,-0.716 0.44,-0.709 0.473,-0.694C0.506,-0.68 0.532,-0.657 0.551,-0.627C0.57,-0.597 0.579,-0.566 0.579,-0.533C0.579,-0.502 0.571,-0.473 0.554,-0.446C0.538,-0.419 0.513,-0.397 0.479,-0.381C0.522,-0.368 0.556,-0.347 0.579,-0.316C0.602,-0.285 0.614,-0.249 0.614,-0.208C0.614,-0.174 0.607,-0.143 0.593,-0.114C0.578,-0.085 0.561,-0.063 0.54,-0.047C0.519,-0.032 0.493,-0.02 0.462,-0.012C0.43,-0.004 0.392,0 0.346,0L0.073,0ZM0.168,-0.415L0.323,-0.415C0.365,-0.415 0.395,-0.418 0.413,-0.423C0.437,-0.431 0.455,-0.442 0.468,-0.459C0.48,-0.476 0.486,-0.496 0.486,-0.521C0.486,-0.545 0.48,-0.566 0.469,-0.584C0.457,-0.602 0.441,-0.615 0.42,-0.621C0.399,-0.628 0.362,-0.631 0.311,-0.631L0.168,-0.631L0.168,-0.415ZM0.168,-0.084L0.346,-0.084C0.377,-0.084 0.398,-0.086 0.411,-0.088C0.432,-0.092 0.451,-0.098 0.465,-0.107C0.48,-0.117 0.492,-0.13 0.501,-0.147C0.511,-0.165 0.516,-0.185 0.516,-0.208C0.516,-0.234 0.509,-0.257 0.495,-0.277C0.481,-0.297 0.462,-0.311 0.438,-0.319C0.414,-0.327 0.379,-0.331 0.333,-0.331L0.168,-0.331L0.168,-0.084Z" style="fill-rule:nonzero;"/>
            </g>
        </g>
        <g transform="matrix(1,0,0,1,268.128,5.53176)">
            <g transform="matrix(24,0,0,24,1171.58,291.941)">
                <path d="M0.202,0L0.012,-0.716L0.109,-0.716L0.218,-0.247C0.23,-0.197 0.24,-0.149 0.249,-0.1C0.267,-0.177 0.278,-0.221 0.281,-0.232L0.417,-0.716L0.531,-0.716L0.634,-0.354C0.66,-0.264 0.678,-0.179 0.689,-0.1C0.699,-0.145 0.71,-0.197 0.725,-0.256L0.837,-0.716L0.933,-0.716L0.736,0L0.645,0L0.494,-0.545C0.481,-0.591 0.474,-0.619 0.472,-0.629C0.464,-0.597 0.457,-0.569 0.451,-0.545L0.299,0L0.202,0Z" style="fill-rule:nonzero;"/>
            </g>
            <g transform="matrix(24,0,0,24,1194.23,291.941)">
                <path d="M0.045,-0.23L0.134,-0.238C0.139,-0.202 0.148,-0.173 0.164,-0.15C0.179,-0.127 0.203,-0.108 0.236,-0.094C0.268,-0.08 0.305,-0.073 0.346,-0.073C0.382,-0.073 0.414,-0.078 0.441,-0.089C0.469,-0.1 0.49,-0.114 0.503,-0.133C0.517,-0.152 0.523,-0.172 0.523,-0.194C0.523,-0.217 0.517,-0.236 0.504,-0.253C0.491,-0.27 0.469,-0.284 0.439,-0.295C0.42,-0.303 0.378,-0.315 0.312,-0.33C0.246,-0.346 0.2,-0.361 0.174,-0.375C0.14,-0.393 0.114,-0.415 0.097,-0.442C0.081,-0.468 0.072,-0.498 0.072,-0.531C0.072,-0.567 0.083,-0.601 0.103,-0.632C0.124,-0.663 0.153,-0.687 0.193,-0.704C0.232,-0.72 0.276,-0.728 0.324,-0.728C0.377,-0.728 0.424,-0.719 0.465,-0.702C0.505,-0.685 0.536,-0.66 0.558,-0.627C0.58,-0.594 0.592,-0.556 0.593,-0.514L0.502,-0.507C0.498,-0.553 0.481,-0.587 0.453,-0.61C0.425,-0.633 0.383,-0.645 0.328,-0.645C0.271,-0.645 0.229,-0.634 0.203,-0.613C0.177,-0.592 0.164,-0.567 0.164,-0.537C0.164,-0.511 0.173,-0.49 0.191,-0.474C0.21,-0.457 0.257,-0.44 0.334,-0.423C0.411,-0.405 0.464,-0.39 0.493,-0.377C0.534,-0.358 0.565,-0.333 0.585,-0.304C0.605,-0.274 0.615,-0.241 0.615,-0.202C0.615,-0.164 0.604,-0.128 0.582,-0.094C0.56,-0.061 0.529,-0.035 0.488,-0.016C0.447,0.003 0.401,0.012 0.35,0.012C0.285,0.012 0.231,0.003 0.187,-0.016C0.143,-0.035 0.109,-0.063 0.084,-0.101C0.059,-0.139 0.046,-0.182 0.045,-0.23Z" style="fill-rule:nonzero;"/>
            </g>
            <g transform="matrix(24,0,0,24,1210.24,291.941)">
                <path d="M0.503,-0.084L0.503,0L0.03,0C0.03,-0.021 0.033,-0.042 0.041,-0.061C0.053,-0.093 0.072,-0.125 0.098,-0.156C0.125,-0.188 0.163,-0.224 0.213,-0.265C0.291,-0.328 0.344,-0.379 0.371,-0.416C0.398,-0.454 0.412,-0.489 0.412,-0.522C0.412,-0.557 0.4,-0.586 0.375,-0.61C0.35,-0.634 0.317,-0.646 0.277,-0.646C0.235,-0.646 0.201,-0.633 0.176,-0.608C0.15,-0.583 0.138,-0.547 0.137,-0.502L0.047,-0.512C0.053,-0.579 0.076,-0.63 0.117,-0.666C0.157,-0.701 0.211,-0.719 0.279,-0.719C0.348,-0.719 0.402,-0.7 0.442,-0.662C0.482,-0.624 0.502,-0.576 0.502,-0.52C0.502,-0.491 0.497,-0.463 0.485,-0.436C0.473,-0.408 0.454,-0.379 0.427,-0.348C0.399,-0.318 0.354,-0.276 0.291,-0.222C0.238,-0.178 0.204,-0.148 0.189,-0.132C0.174,-0.116 0.162,-0.1 0.152,-0.084L0.503,-0.084Z" style="fill-rule:nonzero;"/>
            </g>
            <g transform="matrix(24,0,0,24,1223.59,291.941)">
                <path d="M0.177,-0.388C0.14,-0.402 0.113,-0.421 0.096,-0.445C0.078,-0.47 0.069,-0.5 0.069,-0.534C0.069,-0.586 0.088,-0.63 0.125,-0.666C0.163,-0.701 0.213,-0.719 0.275,-0.719C0.337,-0.719 0.388,-0.701 0.426,-0.664C0.464,-0.628 0.483,-0.584 0.483,-0.532C0.483,-0.499 0.474,-0.47 0.457,-0.445C0.439,-0.42 0.413,-0.402 0.377,-0.388C0.421,-0.374 0.455,-0.351 0.478,-0.319C0.501,-0.287 0.512,-0.249 0.512,-0.205C0.512,-0.143 0.491,-0.092 0.447,-0.05C0.404,-0.009 0.347,0.012 0.276,0.012C0.206,0.012 0.149,-0.009 0.105,-0.051C0.062,-0.092 0.041,-0.145 0.041,-0.207C0.041,-0.254 0.052,-0.293 0.076,-0.324C0.1,-0.355 0.133,-0.377 0.177,-0.388ZM0.159,-0.537C0.159,-0.503 0.17,-0.476 0.192,-0.454C0.214,-0.433 0.242,-0.422 0.277,-0.422C0.311,-0.422 0.338,-0.433 0.36,-0.454C0.382,-0.475 0.393,-0.501 0.393,-0.532C0.393,-0.564 0.381,-0.592 0.359,-0.614C0.337,-0.635 0.309,-0.646 0.276,-0.646C0.242,-0.646 0.215,-0.636 0.192,-0.614C0.17,-0.593 0.159,-0.567 0.159,-0.537ZM0.131,-0.207C0.131,-0.181 0.137,-0.157 0.149,-0.134C0.161,-0.11 0.178,-0.092 0.202,-0.079C0.225,-0.066 0.25,-0.06 0.277,-0.06C0.319,-0.06 0.354,-0.074 0.381,-0.101C0.409,-0.128 0.422,-0.162 0.422,-0.204C0.422,-0.246 0.408,-0.281 0.38,-0.309C0.352,-0.336 0.317,-0.35 0.274,-0.35C0.233,-0.35 0.199,-0.336 0.172,-0.309C0.144,-0.282 0.131,-0.248 0.131,-0.207Z" style="fill-rule:nonzero;"/>
            </g>
            <g transform="matrix(24,0,0,24,1236.93,291.941)">
                <path d="M0.373,0L0.285,0L0.285,-0.56C0.264,-0.54 0.236,-0.52 0.201,-0.5C0.167,-0.479 0.136,-0.464 0.109,-0.454L0.109,-0.539C0.158,-0.562 0.201,-0.59 0.238,-0.623C0.275,-0.656 0.301,-0.688 0.316,-0.719L0.373,-0.719L0.373,0Z" style="fill-rule:nonzero;"/>
            </g>
            <g transform="matrix(24,0,0,24,1250.28,291.941)">
                <path d="M0.503,-0.084L0.503,0L0.03,0C0.03,-0.021 0.033,-0.042 0.041,-0.061C0.053,-0.093 0.072,-0.125 0.098,-0.156C0.125,-0.188 0.163,-0.224 0.213,-0.265C0.291,-0.328 0.344,-0.379 0.371,-0.416C0.398,-0.454 0.412,-0.489 0.412,-0.522C0.412,-0.557 0.4,-0.586 0.375,-0.61C0.35,-0.634 0.317,-0.646 0.277,-0.646C0.235,-0.646 0.201,-0.633 0.176,-0.608C0.15,-0.583 0.138,-0.547 0.137,-0.502L0.047,-0.512C0.053,-0.579 0.076,-0.63 0.117,-0.666C0.157,-0.701 0.211,-0.719 0.279,-0.719C0.348,-0.719 0.402,-0.7 0.442,-0.662C0.482,-0.624 0.502,-0.576 0.502,-0.52C0.502,-0.491 0.497,-0.463 0.485,-0.436C0.473,-0.408 0.454,-0.379 0.427,-0.348C0.399,-0.318 0.354,-0.276 0.291,-0.222C0.238,-0.178 0.204,-0.148 0.189,-0.132C0.174,-0.116 0.162,-0.1 0.152,-0.084L0.503,-0.084Z" style="fill-rule:nonzero;"/>
            </g>
            <g transform="matrix(24,0,0,24,1263.63,291.941)">
                <path d="M0.073,0L0.073,-0.716L0.342,-0.716C0.396,-0.716 0.44,-0.709 0.473,-0.694C0.506,-0.68 0.532,-0.657 0.551,-0.627C0.57,-0.597 0.579,-0.566 0.579,-0.533C0.579,-0.502 0.571,-0.473 0.554,-0.446C0.538,-0.419 0.513,-0.397 0.479,-0.381C0.522,-0.368 0.556,-0.347 0.579,-0.316C0.602,-0.285 0.614,-0.249 0.614,-0.208C0.614,-0.174 0.607,-0.143 0.593,-0.114C0.578,-0.085 0.561,-0.063 0.54,-0.047C0.519,-0.032 0.493,-0.02 0.462,-0.012C0.43,-0.004 0.392,0 0.346,0L0.073,0ZM0.168,-0.415L0.323,-0.415C0.365,-0.415 0.395,-0.418 0.413,-0.423C0.437,-0.431 0.455,-0.442 0.468,-0.459C0.48,-0.476 0.486,-0.496 0.486,-0.521C0.486,-0.545 0.48,-0.566 0.469,-0.584C0.457,-0.602 0.441,-0.615 0.42,-0.621C0.399,-0.628 0.362,-0.631 0.311,-0.631L0.168,-0.631L0.168,-0.415ZM0.168,-0.084L0.346,-0.084C0.377,-0.084 0.398,-0.086 0.411,-0.088C0.432,-0.092 0.451,-0.098 0.465,-0.107C0.48,-0.117 0.492,-0.13 0.501,-0.147C0.511,-0.165 0.516,-0.185 0.516,-0.208C0.516,-0.234 0.509,-0.257 0.495,-0.277C0.481,-0.297 0.462,-0.311 0.438,-0.319C0.414,-0.327 0.379,-0.331 0.333,-0.331L0.168,-0.331L0.168,-0.084Z" style="fill-rule:nonzero;"/>
            </g>
        </g>
    </g>
</svg>
